<svg width="40" height="38" viewBox="0 0 40 38" fill="none" xmlns="http://www.w3.org/2000/svg">
<mask id="path-1-outside-1_776_1974" maskUnits="userSpaceOnUse" x="0.103333" y="0.5625" width="40" height="38" fill="black">
<rect fill="white" x="0.103333" y="0.5625" width="40" height="38"/>
<path fill-rule="evenodd" clip-rule="evenodd" d="M13.0628 8.1003C13.2111 8.0509 13.3418 7.95971 13.4394 7.83772L14.8442 6.08172C15.1068 5.75354 15.5042 5.5625 15.9245 5.5625C16.9033 5.5625 17.5725 6.55102 17.209 7.45976C17.1834 7.52394 17.2306 7.59375 17.2997 7.59375H18.075C18.2641 7.59375 18.4429 7.50778 18.5611 7.3601L19.5838 6.08172C19.8463 5.75354 20.2438 5.5625 20.6641 5.5625C21.6428 5.5625 22.3121 6.55102 21.9486 7.45976C21.9229 7.52394 21.9702 7.59375 22.0393 7.59375H22.8145C23.0036 7.59375 23.1825 7.50778 23.3007 7.3601L24.3234 6.08172C24.5859 5.75354 24.9834 5.5625 25.4037 5.5625C26.3824 5.5625 27.0517 6.55102 26.6882 7.45976C26.566 7.76528 26.7141 8.11307 27.0197 8.23528C27.241 8.3238 27.4937 8.27192 27.6622 8.10339L28.2885 7.47717C29.3461 6.4195 31.0609 6.4195 32.1186 7.47717L33.0762 8.43471C34.1338 9.49238 34.1338 11.2072 33.0762 12.2649L32.1186 13.2224C31.5674 13.7736 31.1091 14.5893 31.4042 15.3108L34.5925 23.1044C34.7923 23.5926 34.895 24.1151 34.895 24.6426V26.5398C34.895 27.7795 34.1562 28.9 33.0167 29.3883L30.3945 30.5121C27.1096 31.9199 23.573 32.6458 19.9992 32.6458C16.4253 32.6458 12.8887 31.9199 9.6038 30.5121L6.98164 29.3883C5.84215 28.9 5.10333 27.7795 5.10333 26.5398V24.5595C5.10333 24.086 5.18611 23.6161 5.34792 23.1711L8.43533 14.6808C8.62199 14.1674 8.36217 13.6086 7.97595 13.2224L7.01841 12.2649C5.96074 11.2072 5.96074 9.49238 7.01841 8.43471L7.97595 7.47717C9.03362 6.4195 10.7484 6.4195 11.8061 7.47717L12.2335 7.90451C12.4505 8.12158 12.7716 8.19738 13.0628 8.1003Z"/>
</mask>
<path fill-rule="evenodd" clip-rule="evenodd" d="M13.0628 8.1003C13.2111 8.0509 13.3418 7.95971 13.4394 7.83772L14.8442 6.08172C15.1068 5.75354 15.5042 5.5625 15.9245 5.5625C16.9033 5.5625 17.5725 6.55102 17.209 7.45976C17.1834 7.52394 17.2306 7.59375 17.2997 7.59375H18.075C18.2641 7.59375 18.4429 7.50778 18.5611 7.3601L19.5838 6.08172C19.8463 5.75354 20.2438 5.5625 20.6641 5.5625C21.6428 5.5625 22.3121 6.55102 21.9486 7.45976C21.9229 7.52394 21.9702 7.59375 22.0393 7.59375H22.8145C23.0036 7.59375 23.1825 7.50778 23.3007 7.3601L24.3234 6.08172C24.5859 5.75354 24.9834 5.5625 25.4037 5.5625C26.3824 5.5625 27.0517 6.55102 26.6882 7.45976C26.566 7.76528 26.7141 8.11307 27.0197 8.23528C27.241 8.3238 27.4937 8.27192 27.6622 8.10339L28.2885 7.47717C29.3461 6.4195 31.0609 6.4195 32.1186 7.47717L33.0762 8.43471C34.1338 9.49238 34.1338 11.2072 33.0762 12.2649L32.1186 13.2224C31.5674 13.7736 31.1091 14.5893 31.4042 15.3108L34.5925 23.1044C34.7923 23.5926 34.895 24.1151 34.895 24.6426V26.5398C34.895 27.7795 34.1562 28.9 33.0167 29.3883L30.3945 30.5121C27.1096 31.9199 23.573 32.6458 19.9992 32.6458C16.4253 32.6458 12.8887 31.9199 9.6038 30.5121L6.98164 29.3883C5.84215 28.9 5.10333 27.7795 5.10333 26.5398V24.5595C5.10333 24.086 5.18611 23.6161 5.34792 23.1711L8.43533 14.6808C8.62199 14.1674 8.36217 13.6086 7.97595 13.2224L7.01841 12.2649C5.96074 11.2072 5.96074 9.49238 7.01841 8.43471L7.97595 7.47717C9.03362 6.4195 10.7484 6.4195 11.8061 7.47717L12.2335 7.90451C12.4505 8.12158 12.7716 8.19738 13.0628 8.1003Z" fill="white"/>
<path d="M14.8442 6.08172L18.7486 9.20519L18.7486 9.20519L14.8442 6.08172ZM19.5838 6.08172L23.4881 9.20519L23.4881 9.20519L19.5838 6.08172ZM24.3234 6.08172L28.2277 9.20519L28.2277 9.20519L24.3234 6.08172ZM28.2885 7.47717L24.7529 3.94164L24.7529 3.94164L28.2885 7.47717ZM32.1186 7.47717L28.5831 11.0127L28.5831 11.0127L32.1186 7.47717ZM33.0762 8.43471L36.6117 4.89918L36.6117 4.89917L33.0762 8.43471ZM33.0762 12.2649L29.5406 8.72934L29.5406 8.72934L33.0762 12.2649ZM34.5925 23.1044L29.9648 24.9976L29.9648 24.9976L34.5925 23.1044ZM33.0167 29.3883L31.0471 24.7926H31.0471L33.0167 29.3883ZM30.3945 30.5121L28.4249 25.9164L28.4249 25.9164L30.3945 30.5121ZM9.6038 30.5121L7.6342 35.1078L7.6342 35.1078L9.6038 30.5121ZM6.98164 29.3883L8.95124 24.7926L8.95123 24.7926L6.98164 29.3883ZM5.34792 23.1711L10.0469 24.8798L10.0469 24.8798L5.34792 23.1711ZM7.01841 12.2649L3.48288 15.8004L3.48288 15.8004L7.01841 12.2649ZM7.01841 8.43471L3.48288 4.89918L7.01841 8.43471ZM7.97595 7.47717L11.5115 11.0127V11.0127L7.97595 7.47717ZM11.8061 7.47717L15.3416 3.94164V3.94164L11.8061 7.47717ZM31.4042 15.3108L26.7765 17.2039L31.4042 15.3108ZM23.3007 7.3601L19.3963 4.23663L23.3007 7.3601ZM18.5611 7.3601L14.6567 4.23663L18.5611 7.3601ZM27.6622 8.10339L31.1978 11.6389L27.6622 8.10339ZM13.4394 7.83772L9.53508 4.71424L13.4394 7.83772ZM10.9399 2.95824L9.53508 4.71424L17.3438 10.9612L18.7486 9.20519L10.9399 2.95824ZM15.9245 0.5625C13.9853 0.5625 12.1513 1.44399 10.9399 2.95825L18.7486 9.20519C18.0622 10.0631 17.0232 10.5625 15.9245 10.5625V0.5625ZM21.8514 9.31671C23.5286 5.12365 20.4406 0.5625 15.9245 0.5625V10.5625C13.3659 10.5625 11.6164 7.97839 12.5666 5.6028L21.8514 9.31671ZM18.075 2.59375H17.2997V12.5938H18.075V2.59375ZM15.6794 2.95824L14.6567 4.23663L22.4654 10.4836L23.4881 9.20519L15.6794 2.95824ZM20.6641 0.5625C18.7249 0.5625 16.8908 1.44399 15.6794 2.95825L23.4881 9.20519C22.8018 10.0631 21.7627 10.5625 20.6641 10.5625V0.5625ZM26.591 9.31671C28.2682 5.12364 25.1802 0.5625 20.6641 0.5625V10.5625C18.1055 10.5625 16.356 7.97839 17.3062 5.60281L26.591 9.31671ZM22.8145 2.59375H22.0393V12.5938H22.8145V2.59375ZM20.419 2.95824L19.3963 4.23663L27.205 10.4836L28.2277 9.20519L20.419 2.95824ZM25.4037 0.5625C23.4645 0.5625 21.6304 1.44399 20.419 2.95825L28.2277 9.20519C27.5414 10.0631 26.5023 10.5625 25.4037 10.5625V0.5625ZM31.3306 9.31671C33.0078 5.12364 29.9197 0.5625 25.4037 0.5625V10.5625C22.8451 10.5625 21.0956 7.97839 22.0458 5.60281L31.3306 9.31671ZM24.7529 3.94164L24.1267 4.56785L31.1978 11.6389L31.824 11.0127L24.7529 3.94164ZM35.6542 3.94164C32.6439 0.93134 27.7632 0.931354 24.7529 3.94164L31.824 11.0127C30.929 11.9077 29.478 11.9077 28.5831 11.0127L35.6542 3.94164ZM36.6117 4.89917L35.6541 3.94163L28.5831 11.0127L29.5406 11.9702L36.6117 4.89917ZM36.6117 15.8004C39.622 12.7901 39.622 7.90947 36.6117 4.89918L29.5406 11.9702C28.6457 11.0753 28.6457 9.62429 29.5406 8.72934L36.6117 15.8004ZM35.6542 16.7579L36.6117 15.8004L29.5406 8.72934L28.5831 9.68688L35.6542 16.7579ZM39.2203 21.2112L36.032 13.4176L26.7765 17.2039L29.9648 24.9976L39.2203 21.2112ZM39.895 24.6426C39.895 23.4658 39.6658 22.3004 39.2203 21.2112L29.9648 24.9976C29.9187 24.8849 29.895 24.7643 29.895 24.6426H39.895ZM39.895 26.5398V24.6426H29.895V26.5398H39.895ZM34.9863 33.984C37.9642 32.7078 39.895 29.7797 39.895 26.5398H29.895C29.895 25.7794 30.3482 25.0921 31.0471 24.7926L34.9863 33.984ZM32.3641 35.1078L34.9863 33.984L31.0471 24.7926L28.4249 25.9164L32.3641 35.1078ZM19.9992 37.6458C24.2502 37.6458 28.4569 36.7824 32.3641 35.1078L28.4249 25.9164C25.7624 27.0575 22.8959 27.6458 19.9992 27.6458V37.6458ZM7.6342 35.1078C11.5415 36.7824 15.7482 37.6458 19.9992 37.6458V27.6458C17.1024 27.6458 14.2359 27.0575 11.5734 25.9164L7.6342 35.1078ZM5.01204 33.984L7.6342 35.1078L11.5734 25.9164L8.95124 24.7926L5.01204 33.984ZM0.103333 26.5398C0.103333 29.7797 2.03414 32.7078 5.01205 33.984L8.95123 24.7926C9.65016 25.0921 10.1033 25.7794 10.1033 26.5398H0.103333ZM0.103333 24.5595V26.5398H10.1033V24.5595H0.103333ZM0.648956 21.4624C0.287985 22.4551 0.103333 23.5032 0.103333 24.5595H10.1033C10.1033 24.6687 10.0842 24.7772 10.0469 24.8798L0.648956 21.4624ZM3.73636 12.972L0.648955 21.4624L10.0469 24.8798L13.1343 16.3895L3.73636 12.972ZM3.48288 15.8004L4.44042 16.7579L11.5115 9.68688L10.5539 8.72934L3.48288 15.8004ZM3.48288 4.89918C0.472584 7.90947 0.472594 12.7901 3.48288 15.8004L10.5539 8.72934C11.4489 9.62429 11.4489 11.0753 10.5539 11.9702L3.48288 4.89918ZM4.44042 3.94164L3.48288 4.89918L10.5539 11.9702L11.5115 11.0127L4.44042 3.94164ZM15.3416 3.94164C12.3314 0.931343 7.45071 0.931351 4.44042 3.94164L11.5115 11.0127C10.6165 11.9077 9.16554 11.9077 8.27058 11.0127L15.3416 3.94164ZM15.769 4.36898L15.3416 3.94164L8.27058 11.0127L8.69792 11.44L15.769 4.36898ZM8.69792 11.44C10.2542 12.9963 12.5561 13.5397 14.644 12.8437L11.4817 3.35689C12.9871 2.85507 14.6469 3.24689 15.769 4.36898L8.69792 11.44ZM13.1343 16.3895C14.2867 13.2203 12.5116 10.687 11.5115 9.68688L4.44042 16.7579C4.20854 16.5261 3.91303 16.1501 3.71086 15.5831C3.49689 14.9829 3.35171 14.0298 3.73636 12.972L13.1343 16.3895ZM22.0458 5.6028C20.9026 8.46075 22.2818 11.7253 25.1627 12.8777L28.8766 3.5929C31.1465 4.50085 32.2293 7.06981 31.3305 9.31672L22.0458 5.6028ZM28.5831 9.68688C27.9706 10.2994 27.2699 11.1863 26.8078 12.3305C26.3351 13.5011 25.9931 15.2889 26.7765 17.2039L36.032 13.4176C36.5203 14.6112 36.2598 15.6304 36.0803 16.0749C35.9114 16.4932 35.7154 16.6967 35.6542 16.7579L28.5831 9.68688ZM22.8145 12.5938C24.5226 12.5938 26.138 11.8173 27.205 10.4836L19.3963 4.23663C20.227 3.19823 21.4847 2.59375 22.8145 2.59375V12.5938ZM18.075 12.5938C19.783 12.5938 21.3984 11.8173 22.4654 10.4836L14.6567 4.23663C15.4875 3.19823 16.7452 2.59375 18.075 2.59375V12.5938ZM17.3062 5.60281C15.9668 8.95132 18.4329 12.5938 22.0393 12.5938V2.59375C25.5075 2.59375 27.879 6.09655 26.591 9.31671L17.3062 5.60281ZM25.1627 12.8777C27.2411 13.709 29.6149 13.2218 31.1978 11.6389L24.1267 4.56785C25.3725 3.32207 27.2408 2.93858 28.8766 3.5929L25.1627 12.8777ZM12.5666 5.60281C11.2272 8.95132 13.6933 12.5938 17.2997 12.5938V2.59375C20.7679 2.59375 23.1395 6.09655 21.8514 9.31671L12.5666 5.60281ZM9.53508 4.71424C10.0396 4.08363 10.7156 3.61227 11.4817 3.35689L14.644 12.8437C15.7065 12.4895 16.6441 11.8358 17.3438 10.9612L9.53508 4.71424Z" fill="white" mask="url(#path-1-outside-1_776_1974)"/>
<mask id="path-3-outside-2_776_1974" maskUnits="userSpaceOnUse" x="2.10333" y="2.5625" width="36" height="33" fill="black">
<rect fill="white" x="2.10333" y="2.5625" width="36" height="33"/>
<path fill-rule="evenodd" clip-rule="evenodd" d="M13.0628 8.1003C13.2111 8.0509 13.3418 7.95971 13.4394 7.83772L14.8442 6.08172C15.1068 5.75354 15.5042 5.5625 15.9245 5.5625C16.9033 5.5625 17.5725 6.55102 17.209 7.45976C17.1834 7.52394 17.2306 7.59375 17.2997 7.59375H18.075C18.2641 7.59375 18.4429 7.50778 18.5611 7.3601L19.5838 6.08172C19.8463 5.75354 20.2438 5.5625 20.6641 5.5625C21.6428 5.5625 22.3121 6.55102 21.9486 7.45976C21.9229 7.52394 21.9702 7.59375 22.0393 7.59375H22.8145C23.0036 7.59375 23.1825 7.50778 23.3007 7.3601L24.3234 6.08172C24.5859 5.75354 24.9834 5.5625 25.4037 5.5625C26.3824 5.5625 27.0517 6.55102 26.6882 7.45976C26.566 7.76528 26.7141 8.11307 27.0197 8.23528C27.241 8.3238 27.4937 8.27192 27.6622 8.10339L28.2885 7.47717C29.3461 6.4195 31.0609 6.4195 32.1186 7.47717L33.0762 8.43471C34.1338 9.49238 34.1338 11.2072 33.0762 12.2649L32.1186 13.2224C31.5674 13.7736 31.1091 14.5893 31.4042 15.3108L34.5925 23.1044C34.7923 23.5926 34.895 24.1151 34.895 24.6426V26.5398C34.895 27.7795 34.1562 28.9 33.0167 29.3883L30.3945 30.5121C27.1096 31.9199 23.573 32.6458 19.9992 32.6458C16.4253 32.6458 12.8887 31.9199 9.6038 30.5121L6.98164 29.3883C5.84215 28.9 5.10333 27.7795 5.10333 26.5398V24.5595C5.10333 24.086 5.18611 23.6161 5.34792 23.1711L8.43533 14.6808C8.62199 14.1674 8.36217 13.6086 7.97595 13.2224L7.01841 12.2649C5.96074 11.2072 5.96074 9.49238 7.01841 8.43471L7.97595 7.47717C9.03362 6.4195 10.7484 6.4195 11.8061 7.47717L12.2335 7.90451C12.4505 8.12158 12.7716 8.19738 13.0628 8.1003Z"/>
</mask>
<path fill-rule="evenodd" clip-rule="evenodd" d="M13.0628 8.1003C13.2111 8.0509 13.3418 7.95971 13.4394 7.83772L14.8442 6.08172C15.1068 5.75354 15.5042 5.5625 15.9245 5.5625C16.9033 5.5625 17.5725 6.55102 17.209 7.45976C17.1834 7.52394 17.2306 7.59375 17.2997 7.59375H18.075C18.2641 7.59375 18.4429 7.50778 18.5611 7.3601L19.5838 6.08172C19.8463 5.75354 20.2438 5.5625 20.6641 5.5625C21.6428 5.5625 22.3121 6.55102 21.9486 7.45976C21.9229 7.52394 21.9702 7.59375 22.0393 7.59375H22.8145C23.0036 7.59375 23.1825 7.50778 23.3007 7.3601L24.3234 6.08172C24.5859 5.75354 24.9834 5.5625 25.4037 5.5625C26.3824 5.5625 27.0517 6.55102 26.6882 7.45976C26.566 7.76528 26.7141 8.11307 27.0197 8.23528C27.241 8.3238 27.4937 8.27192 27.6622 8.10339L28.2885 7.47717C29.3461 6.4195 31.0609 6.4195 32.1186 7.47717L33.0762 8.43471C34.1338 9.49238 34.1338 11.2072 33.0762 12.2649L32.1186 13.2224C31.5674 13.7736 31.1091 14.5893 31.4042 15.3108L34.5925 23.1044C34.7923 23.5926 34.895 24.1151 34.895 24.6426V26.5398C34.895 27.7795 34.1562 28.9 33.0167 29.3883L30.3945 30.5121C27.1096 31.9199 23.573 32.6458 19.9992 32.6458C16.4253 32.6458 12.8887 31.9199 9.6038 30.5121L6.98164 29.3883C5.84215 28.9 5.10333 27.7795 5.10333 26.5398V24.5595C5.10333 24.086 5.18611 23.6161 5.34792 23.1711L8.43533 14.6808C8.62199 14.1674 8.36217 13.6086 7.97595 13.2224L7.01841 12.2649C5.96074 11.2072 5.96074 9.49238 7.01841 8.43471L7.97595 7.47717C9.03362 6.4195 10.7484 6.4195 11.8061 7.47717L12.2335 7.90451C12.4505 8.12158 12.7716 8.19738 13.0628 8.1003Z" fill="white"/>
<path d="M14.8442 6.08172L16.7964 7.64346L16.7964 7.64345L14.8442 6.08172ZM19.5838 6.08172L21.536 7.64346L21.536 7.64345L19.5838 6.08172ZM24.3234 6.08172L26.2755 7.64346L26.2755 7.64345L24.3234 6.08172ZM28.2885 7.47717L26.5207 5.70941V5.70941L28.2885 7.47717ZM32.1186 7.47717L30.3508 9.24494L30.3508 9.24494L32.1186 7.47717ZM33.0762 8.43471L34.8439 6.66694L34.8439 6.66694L33.0762 8.43471ZM33.0762 12.2649L31.3084 10.4971V10.4971L33.0762 12.2649ZM34.5925 23.1044L32.2787 24.051L32.2787 24.051L34.5925 23.1044ZM33.0167 29.3883L32.0319 27.0905H32.0319L33.0167 29.3883ZM30.3945 30.5121L29.4097 28.2142L30.3945 30.5121ZM9.6038 30.5121L8.619 32.81H8.619L9.6038 30.5121ZM6.98164 29.3883L7.96644 27.0905H7.96644L6.98164 29.3883ZM5.34792 23.1711L7.6974 24.0255L7.69741 24.0255L5.34792 23.1711ZM7.01841 12.2649L5.25065 14.0326L5.25065 14.0326L7.01841 12.2649ZM7.01841 8.43471L5.25065 6.66694L7.01841 8.43471ZM7.97595 7.47717L9.74372 9.24494V9.24494L7.97595 7.47717ZM11.8061 7.47717L13.5739 5.7094V5.7094L11.8061 7.47717ZM31.4042 15.3108L29.0904 16.2574L31.4042 15.3108ZM23.3007 7.3601L21.3485 5.79837L23.3007 7.3601ZM18.5611 7.3601L16.6089 5.79837L18.5611 7.3601ZM27.6622 8.10339L29.43 9.87115L27.6622 8.10339ZM13.4394 7.83772L11.4872 6.27598L13.4394 7.83772ZM12.892 4.51998L11.4872 6.27598L15.3916 9.39946L16.7964 7.64346L12.892 4.51998ZM15.9245 3.0625C14.7448 3.0625 13.629 3.59876 12.892 4.51998L16.7964 7.64345C16.5845 7.90832 16.2637 8.0625 15.9245 8.0625V3.0625ZM19.5302 8.38824C20.5506 5.83733 18.6719 3.0625 15.9245 3.0625V8.0625C15.1346 8.0625 14.5945 7.2647 14.8878 6.53128L19.5302 8.38824ZM18.075 5.09375H17.2997V10.0938H18.075V5.09375ZM17.6316 4.51998L16.6089 5.79837L20.5133 8.92184L21.536 7.64346L17.6316 4.51998ZM20.6641 3.0625C19.4844 3.0625 18.3686 3.59876 17.6316 4.51998L21.536 7.64345C21.3241 7.90832 21.0033 8.0625 20.6641 8.0625V3.0625ZM24.2698 8.38823C25.2901 5.83733 23.4115 3.0625 20.6641 3.0625V8.0625C19.8742 8.0625 19.334 7.2647 19.6274 6.53128L24.2698 8.38823ZM22.8145 5.09375H22.0393V10.0938H22.8145V5.09375ZM22.3712 4.51998L21.3485 5.79837L25.2528 8.92184L26.2755 7.64346L22.3712 4.51998ZM25.4037 3.0625C24.2239 3.0625 23.1082 3.59876 22.3712 4.51998L26.2755 7.64345C26.0636 7.90832 25.7428 8.0625 25.4037 8.0625V3.0625ZM29.0094 8.38823C30.0297 5.83733 28.1511 3.0625 25.4037 3.0625V8.0625C24.6137 8.0625 24.0736 7.2647 24.367 6.53128L29.0094 8.38823ZM26.5207 5.70941L25.8945 6.33562L29.43 9.87115L30.0562 9.24494L26.5207 5.70941ZM33.8864 5.70941C31.8524 3.67542 28.5547 3.67543 26.5207 5.70941L30.0562 9.24494C30.1376 9.16358 30.2695 9.16358 30.3508 9.24494L33.8864 5.70941ZM34.8439 6.66694L33.8864 5.7094L30.3508 9.24494L31.3084 10.2025L34.8439 6.66694ZM34.8439 14.0326C36.8779 11.9987 36.8779 8.70092 34.8439 6.66694L31.3084 10.2025C31.3897 10.2838 31.3897 10.4157 31.3084 10.4971L34.8439 14.0326ZM33.8864 14.9902L34.8439 14.0326L31.3084 10.4971L30.3508 11.4546L33.8864 14.9902ZM36.9064 22.1578L33.7181 14.3642L29.0904 16.2574L32.2787 24.051L36.9064 22.1578ZM37.395 24.6426C37.395 23.7905 37.229 22.9465 36.9064 22.1578L32.2787 24.051C32.3555 24.2388 32.395 24.4397 32.395 24.6426H37.395ZM37.395 26.5398V24.6426H32.395V26.5398H37.395ZM34.0015 31.6862C36.0602 30.8039 37.395 28.7796 37.395 26.5398H32.395C32.395 26.7795 32.2522 26.9961 32.0319 27.0905L34.0015 31.6862ZM31.3793 32.81L34.0015 31.6862L32.0319 27.0905L29.4097 28.2142L31.3793 32.81ZM19.9992 35.1458C23.9116 35.1458 27.7833 34.3511 31.3793 32.81L29.4097 28.2142C26.436 29.4887 23.2345 30.1458 19.9992 30.1458V35.1458ZM8.619 32.81C12.2151 34.3511 16.0867 35.1458 19.9992 35.1458V30.1458C16.7639 30.1458 13.5623 29.4887 10.5886 28.2142L8.619 32.81ZM5.99684 31.6862L8.619 32.81L10.5886 28.2142L7.96644 27.0905L5.99684 31.6862ZM2.60333 26.5398C2.60333 28.7796 3.93814 30.8039 5.99684 31.6862L7.96644 27.0905C7.74616 26.9961 7.60333 26.7795 7.60333 26.5398H2.60333ZM2.60333 24.5595V26.5398H7.60333V24.5595H2.60333ZM2.99844 22.3168C2.73705 23.0356 2.60333 23.7946 2.60333 24.5595H7.60333C7.60333 24.3773 7.63517 24.1966 7.6974 24.0255L2.99844 22.3168ZM6.08585 13.8264L2.99844 22.3168L7.69741 24.0255L10.7848 15.5351L6.08585 13.8264ZM5.25065 14.0326L6.20819 14.9902L9.74372 11.4546L8.78618 10.4971L5.25065 14.0326ZM5.25065 6.66694C3.21666 8.70093 3.21667 11.9987 5.25065 14.0326L8.78618 10.4971C8.70482 10.4157 8.70482 10.2838 8.78618 10.2025L5.25065 6.66694ZM6.20819 5.70941L5.25065 6.66694L8.78618 10.2025L9.74372 9.24494L6.20819 5.70941ZM13.5739 5.7094C11.5399 3.67542 8.24216 3.67543 6.20819 5.70941L9.74372 9.24494C9.82508 9.16358 9.95699 9.16358 10.0383 9.24494L13.5739 5.7094ZM14.0012 6.13674L13.5739 5.7094L10.0383 9.24494L10.4657 9.67228L14.0012 6.13674ZM10.4657 9.67228C11.3523 10.5589 12.6638 10.8685 13.8534 10.472L12.2723 5.72859C12.8794 5.52623 13.5487 5.68423 14.0012 6.13674L10.4657 9.67228ZM10.7848 15.5351C11.4544 13.6939 10.4369 12.1478 9.74372 11.4546L6.20819 14.9902C6.1888 14.9708 6.1218 14.9009 6.06567 14.7435C6.00363 14.5695 5.94018 14.227 6.08585 13.8264L10.7848 15.5351ZM24.367 6.53128C23.7343 8.11301 24.498 9.91919 26.0912 10.5565L27.9481 5.91409C28.9303 6.30696 29.3976 7.41754 29.0094 8.38824L24.367 6.53128ZM30.3508 11.4546C29.9068 11.8987 29.4302 12.513 29.1259 13.2666C28.8163 14.0334 28.6249 15.1194 29.0904 16.2574L33.7181 14.3642C33.8885 14.7806 33.7786 15.0981 33.7622 15.1388C33.7526 15.1625 33.7536 15.1526 33.7799 15.1151C33.8053 15.0789 33.8418 15.0348 33.8864 14.9902L30.3508 11.4546ZM22.8145 10.0938C23.7631 10.0938 24.6603 9.66256 25.2528 8.92184L21.3485 5.79837C21.7048 5.35301 22.2442 5.09375 22.8145 5.09375V10.0938ZM18.075 10.0938C19.0235 10.0938 19.9207 9.66256 20.5133 8.92184L16.6089 5.79837C16.9652 5.35301 17.5046 5.09375 18.075 5.09375V10.0938ZM19.6274 6.53128C18.9449 8.23763 20.2015 10.0938 22.0393 10.0938V5.09375C23.7388 5.09375 24.901 6.81024 24.2698 8.38824L19.6274 6.53128ZM26.0912 10.5565C27.241 11.0164 28.5543 10.7468 29.43 9.87115L25.8945 6.33562C26.4331 5.797 27.2409 5.63119 27.9481 5.91409L26.0912 10.5565ZM14.8878 6.53128C14.2053 8.23763 15.462 10.0938 17.2997 10.0938V5.09375C18.9993 5.09375 20.1614 6.81024 19.5302 8.38824L14.8878 6.53128ZM11.4872 6.27598C11.6907 6.02167 11.9633 5.83158 12.2723 5.72859L13.8534 10.472C14.4588 10.2702 14.993 9.89775 15.3916 9.39946L11.4872 6.27598Z" fill="#201617" mask="url(#path-3-outside-2_776_1974)"/>
<path d="M15.5357 27.125L9.36935 27.6046C8.31429 27.6867 7.5 28.5667 7.5 29.625C7.5 31.3509 8.89911 32.75 10.625 32.75H29.9029C31.3372 32.75 32.5 31.5872 32.5 30.1529C32.5 28.7967 31.4564 27.6688 30.1043 27.5637L24.4643 27.125H15.5357Z" fill="url(#paint0_linear_776_1974)"/>
<path d="M14.6974 25.25C13.1135 25.25 12.0834 23.5832 12.7917 22.1666L15.4775 16.7951C16.334 15.0821 18.0848 14 20 14C21.9152 14 23.666 15.0821 24.5225 16.7951L27.2083 22.1666C27.9166 23.5832 26.8865 25.25 25.3026 25.25C25.1016 25.25 24.9014 25.2253 24.7064 25.1766L20 24L15.2936 25.1766C15.0986 25.2253 14.8984 25.25 14.6974 25.25Z" fill="url(#paint1_linear_776_1974)"/>
<rect x="18.75" y="19" width="2.5" height="3.75" fill="url(#paint2_linear_776_1974)"/>
<path d="M22.3291 16.5C23.415 16.5 23.9288 17.8391 23.1217 18.5655L22.1791 19.4138C21.581 19.9521 20.8047 20.25 20 20.25C19.1953 20.25 18.4191 19.9521 17.8209 19.4138L16.8783 18.5655C16.0712 17.8391 16.5851 16.5 17.6709 16.5H20H22.3291Z" fill="#201617"/>
<path d="M23.75 22.75C23.5288 23.1086 23.0414 23.4255 22.3634 23.6515C21.6854 23.8775 20.8546 24 20 24C19.1454 24 18.3146 23.8775 17.6366 23.6515C16.9586 23.4255 16.4712 23.1086 16.25 22.75" stroke="#201617" stroke-width="2.5" stroke-linecap="round" stroke-linejoin="round"/>
<circle cx="13.125" cy="14.625" r="3.125" fill="white"/>
<circle cx="13.125" cy="14.625" r="1.875" fill="#201617"/>
<circle cx="26.875" cy="14.625" r="3.125" fill="white"/>
<circle cx="26.875" cy="14.625" r="1.875" fill="#201617"/>
<path d="M11.25 9C11.9404 9.69036 11.9404 10.8096 11.25 11.5C10.5596 12.1904 9.44036 12.1904 8.75 11.5C8.05964 10.8096 8.05964 9.69036 8.75 9C9.44036 8.30964 10.5596 8.30964 11.25 9Z" fill="#CECECE"/>
<path d="M31.25 9C31.9404 9.69036 31.9404 10.8096 31.25 11.5C30.5596 12.1904 29.4404 12.1904 28.75 11.5C28.0596 10.8096 28.0596 9.69036 28.75 9C29.4404 8.30964 30.5596 8.30964 31.25 9Z" fill="#CECECE"/>
<mask id="path-16-outside-3_776_1974" maskUnits="userSpaceOnUse" x="2.10345" y="2.5625" width="36" height="33" fill="black">
<rect fill="white" x="2.10345" y="2.5625" width="36" height="33"/>
<path fill-rule="evenodd" clip-rule="evenodd" d="M13.063 8.1003C13.2112 8.0509 13.3419 7.95971 13.4395 7.83772L14.8443 6.08172C15.1069 5.75354 15.5044 5.5625 15.9246 5.5625C16.9034 5.5625 17.5726 6.55102 17.2091 7.45976C17.1835 7.52394 17.2307 7.59375 17.2999 7.59375H18.0751C18.2642 7.59375 18.4431 7.50778 18.5612 7.3601L19.5839 6.08172C19.8465 5.75354 20.2439 5.5625 20.6642 5.5625C21.643 5.5625 22.3122 6.55102 21.9487 7.45976C21.923 7.52394 21.9703 7.59375 22.0394 7.59375H22.8146C23.0038 7.59375 23.1826 7.50778 23.3008 7.3601L24.3235 6.08172C24.586 5.75354 24.9835 5.5625 25.4038 5.5625C26.3825 5.5625 27.0518 6.55102 26.6883 7.45976C26.5661 7.76528 26.7143 8.11307 27.0198 8.23528C27.2411 8.3238 27.4938 8.27192 27.6624 8.10339L28.2886 7.47717C29.3462 6.4195 31.0611 6.4195 32.1187 7.47717L33.0763 8.43471C34.1339 9.49238 34.1339 11.2072 33.0763 12.2649L32.1187 13.2224C31.5675 13.7736 31.1092 14.5893 31.4044 15.3108L34.5927 23.1044C34.7924 23.5926 34.8951 24.1151 34.8951 24.6426V26.5398C34.8951 27.7795 34.1563 28.9 33.0168 29.3883L30.3947 30.5121C27.1098 31.9199 23.5731 32.6458 19.9993 32.6458C16.4254 32.6458 12.8888 31.9199 9.60392 30.5121L6.98176 29.3883C5.84227 28.9 5.10345 27.7795 5.10345 26.5398V24.5595C5.10345 24.086 5.18623 23.6161 5.34804 23.1711L8.43545 14.6808C8.62211 14.1674 8.3623 13.6086 7.97608 13.2224L7.01854 12.2649C5.96087 11.2072 5.96087 9.49238 7.01854 8.43471L7.97607 7.47717C9.03374 6.4195 10.7486 6.4195 11.8062 7.47717L12.2336 7.90451C12.4506 8.12158 12.7717 8.19738 13.063 8.1003Z"/>
</mask>
<path d="M14.8443 6.08172L16.7965 7.64346L16.7965 7.64345L14.8443 6.08172ZM19.5839 6.08172L21.5361 7.64346L21.5361 7.64345L19.5839 6.08172ZM24.3235 6.08172L26.2757 7.64346L26.2757 7.64345L24.3235 6.08172ZM28.2886 7.47717L26.5208 5.70941V5.70941L28.2886 7.47717ZM32.1187 7.47717L30.351 9.24494L30.351 9.24494L32.1187 7.47717ZM33.0763 8.43471L34.844 6.66694L34.844 6.66694L33.0763 8.43471ZM33.0763 12.2649L31.3085 10.4971V10.4971L33.0763 12.2649ZM34.5927 23.1044L32.2788 24.051L32.2788 24.051L34.5927 23.1044ZM33.0168 29.3883L32.032 27.0905H32.032L33.0168 29.3883ZM30.3947 30.5121L29.4099 28.2142L30.3947 30.5121ZM9.60392 30.5121L8.61912 32.81H8.61912L9.60392 30.5121ZM6.98176 29.3883L7.96656 27.0905H7.96656L6.98176 29.3883ZM5.34804 23.1711L7.69753 24.0255L7.69753 24.0255L5.34804 23.1711ZM7.01854 12.2649L5.25077 14.0326L5.25077 14.0326L7.01854 12.2649ZM7.01854 8.43471L5.25077 6.66694L7.01854 8.43471ZM7.97607 7.47717L9.74384 9.24494V9.24494L7.97607 7.47717ZM11.8062 7.47717L13.574 5.7094V5.7094L11.8062 7.47717ZM31.4044 15.3108L29.0905 16.2574L31.4044 15.3108ZM23.3008 7.3601L21.3486 5.79837L23.3008 7.3601ZM18.5612 7.3601L16.609 5.79837L18.5612 7.3601ZM27.6624 8.10339L29.4301 9.87115L27.6624 8.10339ZM13.4395 7.83772L11.4874 6.27598L13.4395 7.83772ZM12.8922 4.51998L11.4874 6.27598L15.3917 9.39946L16.7965 7.64346L12.8922 4.51998ZM15.9246 3.0625C14.7449 3.0625 13.6291 3.59876 12.8922 4.51998L16.7965 7.64345C16.5846 7.90832 16.2638 8.0625 15.9246 8.0625V3.0625ZM19.5303 8.38824C20.5507 5.83733 18.672 3.0625 15.9246 3.0625V8.0625C15.1347 8.0625 14.5946 7.2647 14.888 6.53128L19.5303 8.38824ZM18.0751 5.09375H17.2999V10.0938H18.0751V5.09375ZM17.6317 4.51998L16.609 5.79837L20.5134 8.92184L21.5361 7.64346L17.6317 4.51998ZM20.6642 3.0625C19.4845 3.0625 18.3687 3.59876 17.6317 4.51998L21.5361 7.64345C21.3242 7.90832 21.0034 8.0625 20.6642 8.0625V3.0625ZM24.2699 8.38823C25.2903 5.83733 23.4116 3.0625 20.6642 3.0625V8.0625C19.8743 8.0625 19.3342 7.2647 19.6275 6.53128L24.2699 8.38823ZM22.8146 5.09375H22.0394V10.0938H22.8146V5.09375ZM22.3713 4.51998L21.3486 5.79837L25.2529 8.92184L26.2757 7.64346L22.3713 4.51998ZM25.4038 3.0625C24.2241 3.0625 23.1083 3.59876 22.3713 4.51998L26.2757 7.64345C26.0638 7.90832 25.743 8.0625 25.4038 8.0625V3.0625ZM29.0095 8.38823C30.0298 5.83733 28.1512 3.0625 25.4038 3.0625V8.0625C24.6139 8.0625 24.0737 7.2647 24.3671 6.53128L29.0095 8.38823ZM26.5208 5.70941L25.8946 6.33562L29.4301 9.87115L30.0563 9.24494L26.5208 5.70941ZM33.8865 5.70941C31.8525 3.67542 28.5548 3.67543 26.5208 5.70941L30.0563 9.24494C30.1377 9.16358 30.2696 9.16358 30.351 9.24494L33.8865 5.70941ZM34.844 6.66694L33.8865 5.7094L30.351 9.24494L31.3085 10.2025L34.844 6.66694ZM34.844 14.0326C36.878 11.9987 36.878 8.70092 34.844 6.66694L31.3085 10.2025C31.3899 10.2838 31.3899 10.4157 31.3085 10.4971L34.844 14.0326ZM33.8865 14.9902L34.844 14.0326L31.3085 10.4971L30.351 11.4546L33.8865 14.9902ZM36.9065 22.1578L33.7182 14.3642L29.0905 16.2574L32.2788 24.051L36.9065 22.1578ZM37.3951 24.6426C37.3951 23.7905 37.2292 22.9465 36.9065 22.1578L32.2788 24.051C32.3556 24.2388 32.3951 24.4397 32.3951 24.6426H37.3951ZM37.3951 26.5398V24.6426H32.3951V26.5398H37.3951ZM34.0016 31.6862C36.0603 30.8039 37.3951 28.7796 37.3951 26.5398H32.3951C32.3951 26.7795 32.2523 26.9961 32.032 27.0905L34.0016 31.6862ZM31.3795 32.81L34.0016 31.6862L32.032 27.0905L29.4099 28.2142L31.3795 32.81ZM19.9993 35.1458C23.9117 35.1458 27.7834 34.3511 31.3795 32.81L29.4099 28.2142C26.4362 29.4887 23.2346 30.1458 19.9993 30.1458V35.1458ZM8.61912 32.81C12.2152 34.3511 16.0869 35.1458 19.9993 35.1458V30.1458C16.764 30.1458 13.5624 29.4887 10.5887 28.2142L8.61912 32.81ZM5.99696 31.6862L8.61912 32.81L10.5887 28.2142L7.96656 27.0905L5.99696 31.6862ZM2.60345 26.5398C2.60345 28.7796 3.93826 30.8039 5.99697 31.6862L7.96656 27.0905C7.74628 26.9961 7.60345 26.7795 7.60345 26.5398H2.60345ZM2.60345 24.5595V26.5398H7.60345V24.5595H2.60345ZM2.99856 22.3168C2.73717 23.0356 2.60345 23.7946 2.60345 24.5595H7.60345C7.60345 24.3773 7.63529 24.1966 7.69753 24.0255L2.99856 22.3168ZM6.08597 13.8264L2.99856 22.3168L7.69753 24.0255L10.7849 15.5351L6.08597 13.8264ZM5.25077 14.0326L6.20831 14.9902L9.74384 11.4546L8.7863 10.4971L5.25077 14.0326ZM5.25077 6.66694C3.21679 8.70093 3.21679 11.9987 5.25077 14.0326L8.7863 10.4971C8.70494 10.4157 8.70495 10.2838 8.7863 10.2025L5.25077 6.66694ZM6.20831 5.70941L5.25077 6.66694L8.7863 10.2025L9.74384 9.24494L6.20831 5.70941ZM13.574 5.7094C11.54 3.67542 8.24229 3.67543 6.20831 5.70941L9.74384 9.24494C9.8252 9.16358 9.95711 9.16358 10.0385 9.24494L13.574 5.7094ZM14.0013 6.13674L13.574 5.7094L10.0385 9.24494L10.4658 9.67228L14.0013 6.13674ZM10.4658 9.67228C11.3525 10.5589 12.664 10.8685 13.8535 10.472L12.2724 5.72859C12.8795 5.52623 13.5488 5.68423 14.0013 6.13674L10.4658 9.67228ZM10.7849 15.5351C11.4545 13.6939 10.437 12.1478 9.74384 11.4546L6.20831 14.9902C6.18893 14.9708 6.12192 14.9009 6.06579 14.7435C6.00375 14.5695 5.94031 14.227 6.08597 13.8264L10.7849 15.5351ZM24.3671 6.53128C23.7344 8.11301 24.4981 9.91919 26.0913 10.5565L27.9483 5.91409C28.9304 6.30696 29.3978 7.41754 29.0095 8.38824L24.3671 6.53128ZM30.351 11.4546C29.9069 11.8987 29.4304 12.513 29.126 13.2666C28.8164 14.0334 28.625 15.1194 29.0905 16.2574L33.7182 14.3642C33.8886 14.7806 33.7787 15.0981 33.7623 15.1388C33.7527 15.1625 33.7537 15.1526 33.78 15.1151C33.8054 15.0789 33.8419 15.0348 33.8865 14.9902L30.351 11.4546ZM22.8146 10.0938C23.7632 10.0938 24.6604 9.66256 25.2529 8.92184L21.3486 5.79837C21.7049 5.35301 22.2443 5.09375 22.8146 5.09375V10.0938ZM18.0751 10.0938C19.0237 10.0938 19.9208 9.66256 20.5134 8.92184L16.609 5.79837C16.9653 5.35301 17.5047 5.09375 18.0751 5.09375V10.0938ZM19.6275 6.53128C18.945 8.23763 20.2017 10.0938 22.0394 10.0938V5.09375C23.739 5.09375 24.9011 6.81024 24.2699 8.38824L19.6275 6.53128ZM26.0913 10.5565C27.2411 11.0164 28.5544 10.7468 29.4301 9.87115L25.8946 6.33562C26.4332 5.797 27.241 5.63119 27.9483 5.91409L26.0913 10.5565ZM14.888 6.53128C14.2054 8.23763 15.4621 10.0938 17.2999 10.0938V5.09375C18.9994 5.09375 20.1615 6.81024 19.5303 8.38824L14.888 6.53128ZM11.4874 6.27598C11.6908 6.02167 11.9634 5.83158 12.2724 5.72859L13.8535 10.472C14.4589 10.2702 14.9931 9.89775 15.3917 9.39946L11.4874 6.27598Z" fill="#201617" mask="url(#path-16-outside-3_776_1974)"/>
<defs>
<linearGradient id="paint0_linear_776_1974" x1="20.4464" y1="25.875" x2="20.4464" y2="31.5" gradientUnits="userSpaceOnUse">
<stop stop-color="white"/>
<stop offset="1" stop-color="#D2D2D2"/>
</linearGradient>
<linearGradient id="paint1_linear_776_1974" x1="19.9992" y1="15.875" x2="19.9992" y2="19.625" gradientUnits="userSpaceOnUse">
<stop stop-color="#F5F5F5"/>
<stop offset="1" stop-color="#E6E6E6"/>
</linearGradient>
<linearGradient id="paint2_linear_776_1974" x1="20" y1="19" x2="20" y2="22.75" gradientUnits="userSpaceOnUse">
<stop stop-color="#2E2E2E"/>
<stop offset="1" stop-color="#333333"/>
</linearGradient>
</defs>
</svg>
