<svg width="393" height="307" viewBox="0 0 393 307" fill="none" xmlns="http://www.w3.org/2000/svg">
<g filter="url(#filter0_d_1043_11422)">
<path d="M27.5 271.952C22.6388 257.855 22.9765 174.28 33.5678 144.379C34.0981 142.882 33.7921 141.21 32.6961 140.06L22.6678 129.543C16.9654 123.562 12.7116 116.353 10.234 108.469L5.29952 92.7688C3.85542 88.1739 4.70561 83.1651 7.58502 79.3041L23.6266 57.7937C24.4771 56.6534 24.6579 55.1471 24.1014 53.8379L22.4159 49.8719C18.7588 41.2671 20.0036 31.3613 25.6758 23.9287L26.5629 22.7663C29.45 18.9831 33.4373 16.1861 37.9774 14.7593C44.6313 12.668 51.8742 13.7016 57.6776 17.5705L63.3932 21.3809C64.6105 22.1925 66.2183 21.1988 66.0369 19.747L65.8423 18.1902C65.3435 14.2 67.5453 10.3613 71.2414 8.77724C73.9146 7.63161 76.9618 7.89258 79.6607 8.97608C86.9948 11.9204 96.5 13.2837 96.5 12.9521V11.738C96.5 6.5489 100.592 2.28165 105.777 2.06562C115.378 1.66557 124.883 4.11087 133.1 9.09452L149.101 18.8005C150.254 19.4996 151.712 19.4471 152.811 18.667L155.774 16.5644C162.433 11.8384 171.077 10.9331 178.571 14.1768L182.606 15.9234C192.213 20.0818 196.632 31.2399 192.477 40.8486C192.252 41.3702 192.634 41.9521 193.202 41.9521H225.5L243.014 39.7163C262.612 37.2144 282.426 36.8712 302.098 38.6927L302.959 38.7724C318.229 40.1863 332.613 46.5759 343.899 56.9591L348.574 61.26C350.193 62.7494 352.739 62.6528 354.617 61.5073C359.279 58.6639 368.387 56.2262 376.5 72.4521C385.024 89.5 375.967 98.0323 370.709 101.307C368.965 102.392 367.89 104.483 368.407 106.471C375.174 132.488 377.27 135.552 383.5 172.452C388.922 204.564 388.778 241.315 388.29 268.776C388.122 278.287 383.278 287.1 375.364 292.376L372.212 294.478C367.821 297.405 362.714 299.079 357.442 299.318L322.73 300.896C314.915 301.251 307.292 298.413 301.612 293.032C301.221 292.662 300.696 292.466 300.157 292.49L267.489 293.958C260.502 294.272 253.716 291.572 248.855 286.543C244.458 281.995 242 275.916 242 269.589V234.035C242 231.611 239.861 229.744 237.46 230.071L223.405 231.988C213.822 233.295 204.139 233.724 194.477 233.271L180.624 232.622C178.568 232.526 176.773 233.998 176.519 236.041C175.227 246.44 173.728 264.756 175.5 276.452C178 292.952 152.5 297.452 134 298.952C119.173 300.154 108.842 295.254 102.75 290.429C100.71 288.814 97.5284 289.115 95.221 290.318C90.8784 292.583 82.4311 293.892 63 294.952C35.5 296.452 32.5 286.452 27.5 271.952Z" fill="white"/>
<path d="M180 51.4521L122 60.9521L69.5 71.9521L48 133.952L38 190.952L36.5 242.452L42 278.952L45.5 282.452L67.5 284.952L92 282.452L99 277.452L100.5 260.452V218.952H114L174 221.452H252.5L251.5 250.452L254 278.952L260.5 282.452H303.5L309.5 284.952L330.5 286.952L370 280.952C371 279.285 373.3 270.052 374.5 246.452C375.7 222.852 370 181.952 367 164.452L354.5 95.4521L365 92.9521L367 84.9521L364 72.4521L354.5 73.4521L346.5 79.9521L331.5 60.9521L301.5 48.4521H251L180 51.4521Z" fill="white"/>
<path fill-rule="evenodd" clip-rule="evenodd" d="M355.542 77.581C355.542 77.5815 355.542 77.582 355.542 77.5825L355.542 77.581ZM355.383 81.2032C355.372 81.8147 355.394 82.4749 355.509 83.1306C355.632 83.8372 356.005 84.4748 356.634 84.8967C357.205 85.28 357.832 85.3801 358.319 85.3916C359.268 85.4141 360.3 85.1107 361.141 84.7923C362.029 84.4564 362.913 84.0217 363.632 83.6205C364.312 83.2417 364.979 82.8186 365.358 82.4816C366.08 81.8395 366.145 80.7334 365.503 80.011C364.861 79.2887 363.755 79.2236 363.033 79.8657C363.033 79.8651 363.007 79.888 362.941 79.9359C362.879 79.981 362.797 80.0375 362.696 80.1038C362.492 80.2367 362.23 80.3951 361.928 80.5636C361.319 80.9034 360.593 81.2578 359.903 81.5188C359.493 81.6739 359.152 81.774 358.887 81.8312C358.874 81.4943 358.882 81.1216 358.903 80.704C358.913 80.5138 358.927 80.3034 358.941 80.0818C358.975 79.5454 359.013 78.9429 359.013 78.3992C359.014 78.3965 359.015 78.3754 359.018 78.322C359.019 78.3108 359.02 78.2983 359.02 78.2849C359.025 78.2224 359.03 78.1378 359.034 78.051C359.045 77.8513 359.056 77.5334 359.022 77.2135C359.005 77.053 358.971 76.8307 358.891 76.5938C358.816 76.3751 358.65 75.9883 358.272 75.6661C357.827 75.286 357.26 75.1443 356.721 75.2241C356.263 75.2918 355.918 75.5026 355.71 75.6532C354.778 76.3313 353.97 77.2524 353.291 78.1358C353.032 77.5379 352.62 76.9152 351.948 76.4982C351.127 75.9885 350.048 76.241 349.538 77.0622C349.044 77.858 349.266 78.896 350.028 79.4232C350.033 79.433 350.041 79.4457 350.049 79.4619C350.105 79.5709 350.17 79.7529 350.227 80.0182C350.342 80.5535 350.374 81.175 350.384 81.6725C350.39 81.9243 350.365 82.1639 350.311 82.3901C350.31 82.393 350.309 82.3961 350.307 82.3995C350.305 82.4047 350.302 82.4132 350.298 82.4239C350.283 82.4644 350.255 82.5374 350.236 82.5919C350.222 82.6313 350.202 82.6911 350.182 82.7583L350.182 82.7601C350.169 82.804 350.125 82.9569 350.109 83.1472C350.102 83.2269 350.083 83.4793 350.169 83.784C350.265 84.1236 350.595 84.8041 351.437 85.0135C352.095 85.1772 352.595 84.9107 352.709 84.8481C352.885 84.7523 353.006 84.6473 353.058 84.6002C353.618 84.0963 354.007 83.4342 354.259 82.9881C354.355 82.8185 354.435 82.6731 354.505 82.5456C354.664 82.2557 354.772 82.0591 354.897 81.8842C354.982 81.7655 355.066 81.6478 355.149 81.5313C355.228 81.4207 355.306 81.3113 355.383 81.2032ZM350.01 79.397C350.01 79.3969 350.011 79.3977 350.012 79.3993C350.011 79.3978 350.01 79.397 350.01 79.397ZM358.356 81.8893C358.356 81.8892 358.359 81.8895 358.364 81.8905C358.359 81.8899 358.356 81.8894 358.356 81.8893Z" fill="#D1D1D3"/>
<path fill-rule="evenodd" clip-rule="evenodd" d="M52.2188 268.92C51.448 269.367 50.6694 269.799 49.8825 270.211C49.842 270.232 49.7994 270.254 49.7546 270.278C49.1284 270.607 48.0927 271.151 47.0065 271.496C45.9386 271.834 44.2079 272.186 42.7168 271.238C42.2331 270.93 41.8875 270.469 41.7268 269.927C41.58 269.433 41.617 268.975 41.6824 268.645C41.8079 268.012 42.1271 267.417 42.4158 266.954C43.0216 265.984 43.9563 264.885 44.87 263.895C45.8032 262.884 46.7945 261.902 47.5713 261.152C47.961 260.776 48.2996 260.456 48.5525 260.218C48.617 260.157 48.6732 260.104 48.7234 260.057C48.7748 260.009 48.8199 259.966 48.861 259.927C48.9409 259.852 48.9721 259.822 48.9772 259.817C48.9778 259.817 48.9781 259.816 48.978 259.816C49.7078 259.082 50.895 259.078 51.6296 259.808C52.3643 260.538 52.3681 261.725 51.6383 262.459C51.5615 262.537 51.4045 262.685 51.1868 262.89C50.4471 263.586 49.006 264.943 47.6256 266.439C47.2282 266.869 46.861 267.285 46.5398 267.673C47.0727 267.449 47.5938 267.176 48.0634 266.93C48.0904 266.916 48.1172 266.902 48.1438 266.888C51.336 265.218 54.3699 263.206 57.4842 261.141C58.1396 260.706 58.7986 260.269 59.4633 259.832C59.7413 259.65 60.0417 259.448 60.3585 259.235C61.1952 258.672 62.1458 258.033 63.0966 257.473C64.4201 256.694 65.9418 255.943 67.5316 255.624C67.7275 255.584 68.0804 255.536 68.4904 255.638C68.9707 255.757 69.4674 256.073 69.7618 256.625C70.0153 257.101 70.0083 257.549 69.986 257.777C69.9621 258.023 69.8998 258.222 69.856 258.344C69.768 258.588 69.6525 258.793 69.5876 258.903C69.522 259.014 69.4575 259.112 69.4387 259.14C69.4368 259.143 69.4354 259.145 69.4345 259.146C68.5049 260.56 67.2548 261.691 66.2319 262.592C64.1118 264.46 61.8046 266.096 59.5925 267.664C59.534 267.705 59.4756 267.747 59.4172 267.788C59.5944 267.722 59.7716 267.658 59.9506 267.597C62.9787 266.559 65.6926 265.084 68.4142 263.173C69.1703 262.641 69.8994 262.106 70.6015 261.543C70.4244 261.685 70.9722 261.218 71.2268 261.034C71.3081 260.975 71.4448 260.88 71.6037 260.796C71.6775 260.757 71.8284 260.681 72.0253 260.625L72.0296 260.624C72.1435 260.592 72.728 260.425 73.3786 260.735C74.319 261.182 74.4728 262.092 74.4599 262.512C74.4486 262.877 74.3349 263.152 74.2963 263.243C74.2001 263.471 74.0702 263.671 73.9849 263.797C72.7692 265.589 71.4307 267.314 70.1313 268.978C70.8709 268.648 71.6455 268.31 72.3486 268.058C72.2561 268.091 73.6773 267.511 74.6827 267.206C74.9552 267.123 75.2514 267.043 75.534 266.988C75.7507 266.945 76.2009 266.865 76.6678 266.944C76.8967 266.982 77.4369 267.107 77.8753 267.6C78.4042 268.194 78.4303 268.903 78.3236 269.373C78.2323 269.774 78.0395 270.071 77.9276 270.226C77.7988 270.406 77.6533 270.566 77.5167 270.704C77.4506 270.77 77.4271 270.805 77.419 270.818C77.4127 270.828 77.4013 270.848 77.3861 270.897C77.0817 271.887 76.0326 272.442 75.0428 272.138C74.6251 272.009 74.2846 271.748 74.0536 271.415C74.0211 271.428 73.9898 271.44 73.9599 271.452C73.8074 271.513 73.6884 271.561 73.6153 271.587C72.9245 271.835 72.263 272.132 71.522 272.465C71.0781 272.664 70.6058 272.876 70.0814 273.098C68.801 273.64 67.3078 274.191 65.7627 274.32C65.4204 274.348 64.7233 274.309 64.1625 273.719C63.6394 273.168 63.6141 272.527 63.625 272.265C63.6456 271.769 63.8469 271.352 63.9161 271.209L63.917 271.207C64.1154 270.796 64.4225 270.326 64.6856 269.945C64.7673 269.827 64.851 269.708 64.9346 269.592C63.7249 270.177 62.4748 270.696 61.1665 271.144C61.0002 271.201 60.7458 271.298 60.4358 271.416C59.6851 271.702 58.6082 272.112 57.6655 272.381C56.9456 272.586 56.1413 272.765 55.3469 272.813C54.5714 272.86 53.6314 272.792 52.7689 272.337C52.4081 272.146 52.0444 271.822 51.8291 271.336C51.6234 270.872 51.6295 270.433 51.6803 270.126C51.7705 269.58 52.0492 269.158 52.1962 268.952C52.2037 268.941 52.2112 268.931 52.2188 268.92ZM73.4373 264.064C73.4373 264.064 73.4354 264.065 73.4319 264.067C73.4355 264.065 73.4373 264.064 73.4373 264.064ZM70.9041 261.657C70.9069 261.652 70.9086 261.65 70.9087 261.65C70.9088 261.65 70.9074 261.652 70.9041 261.657ZM76.3322 270.656C76.3319 270.656 76.3243 270.657 76.3103 270.658C76.3255 270.656 76.3325 270.655 76.3322 270.656ZM67.2775 272.876C67.2766 272.876 67.281 272.864 67.2931 272.839C67.2844 272.862 67.2784 272.875 67.2775 272.876ZM55.2344 271.153C55.2337 271.153 55.2382 271.145 55.2498 271.129C55.2407 271.144 55.235 271.153 55.2344 271.153Z" fill="#D1D1D3"/>
<path fill-rule="evenodd" clip-rule="evenodd" d="M260.742 270.457C260.215 270.834 259.48 271.339 258.696 271.75C258.19 272.016 257.604 272.274 256.987 272.432C256.379 272.588 255.62 272.677 254.837 272.468C254.427 272.359 253.989 272.101 253.687 271.643C253.409 271.22 253.357 270.796 253.357 270.53C253.356 270.053 253.521 269.664 253.591 269.507C253.763 269.12 254.025 268.728 254.223 268.448C254.441 268.142 254.672 267.845 254.849 267.626C254.966 267.48 255.229 267.16 255.166 267.239C256.755 265.272 258.455 263.661 260.401 262.125C261.214 261.483 262.393 261.622 263.035 262.435C263.274 262.737 263.404 263.09 263.433 263.447C264.344 262.69 265.31 261.931 266.352 261.242C266.731 260.991 267.34 260.578 267.971 260.15C268.341 259.899 268.718 259.643 269.061 259.412C269.507 259.111 269.915 258.839 270.14 258.697C270.19 258.666 270.272 258.615 270.353 258.571C270.376 258.559 270.413 258.539 270.459 258.517L270.459 258.517C270.489 258.503 270.593 258.454 270.732 258.412C270.793 258.394 270.957 258.347 271.173 258.335L271.175 258.335C271.296 258.329 271.997 258.291 272.586 258.868C273.316 259.582 273.153 260.459 273.078 260.722C272.996 261.012 272.863 261.21 272.823 261.268C272.725 261.412 272.627 261.511 272.603 261.536L272.601 261.537C272.562 261.577 272.527 261.609 272.506 261.627C272.463 261.666 272.423 261.699 272.394 261.723C272.334 261.771 272.262 261.828 272.184 261.887C271.315 262.549 270.564 263.43 269.816 264.484C269.443 265.01 269.084 265.558 268.71 266.134C268.673 266.19 268.636 266.247 268.599 266.305C268.532 266.409 268.464 266.514 268.395 266.619C269.34 265.94 270.279 265.243 271.231 264.536C271.309 264.478 271.388 264.42 271.466 264.362C272.802 263.37 274.166 262.362 275.567 261.395C275.671 261.323 275.791 261.237 275.924 261.141C276.46 260.756 277.207 260.22 277.96 259.869C278.081 259.812 278.291 259.726 278.559 259.688C278.827 259.649 279.301 259.638 279.793 259.915C280.879 260.525 280.782 261.673 280.771 261.797L280.771 261.798C280.746 262.093 280.662 262.338 280.62 262.454C280.568 262.598 280.507 262.734 280.454 262.847C280.287 263.198 280.043 263.621 279.914 263.843C279.89 263.884 279.87 263.919 279.855 263.945C279.156 265.173 278.505 266.435 277.844 267.732C278.02 267.618 278.196 267.503 278.373 267.387C278.594 267.244 278.816 267.099 279.04 266.954C280.467 266.028 281.953 265.082 283.512 264.239C283.611 264.185 283.741 264.113 283.879 264.036C284.098 263.915 284.337 263.782 284.508 263.693C284.764 263.56 285.304 263.28 285.891 263.22C286.23 263.185 286.794 263.201 287.343 263.564C287.914 263.943 288.16 264.492 288.257 264.9C288.416 265.576 288.27 266.295 288.148 266.795C288.042 267.23 287.939 267.615 287.844 267.966C287.725 268.41 287.619 268.801 287.54 269.177C287.723 269.306 287.887 269.471 288.019 269.669C288.593 270.531 288.36 271.695 287.499 272.27C287.485 272.279 287.429 272.317 287.359 272.365C287.229 272.454 287.05 272.577 287.002 272.609C286.915 272.665 286.773 272.754 286.605 272.833C286.46 272.9 286.12 273.046 285.674 273.043C285.117 273.04 284.567 272.804 284.178 272.352C283.864 271.989 283.756 271.602 283.714 271.418C283.63 271.05 283.631 270.651 283.636 270.389C283.647 269.689 283.751 268.993 283.888 268.338C282.955 268.892 282.028 269.485 281.081 270.1C280.867 270.239 280.651 270.379 280.434 270.521C279.231 271.304 277.988 272.113 276.716 272.864C276.633 272.913 276.471 273.028 276.184 273.231C276.136 273.266 276.083 273.303 276.027 273.343C275.705 273.571 275.274 273.873 274.885 274.097C274.7 274.203 274.431 274.346 274.135 274.442C273.989 274.49 273.742 274.557 273.441 274.562C273.143 274.566 272.601 274.508 272.108 274.091C271.588 273.651 271.436 273.081 271.409 272.702C271.383 272.351 271.451 272.057 271.501 271.884C271.602 271.53 271.778 271.185 271.947 270.889C272.622 269.701 273.253 268.483 273.89 267.233C273.827 267.28 273.764 267.326 273.701 267.373C273.619 267.434 273.538 267.494 273.456 267.555C272.203 268.485 270.926 269.433 269.621 270.348C268.027 271.466 266.352 272.573 264.518 273.502C264.52 273.501 264.512 273.505 264.49 273.518C264.468 273.53 264.44 273.548 264.404 273.57C264.33 273.617 264.243 273.675 264.135 273.748C264.112 273.763 264.088 273.78 264.062 273.797C263.874 273.924 263.624 274.093 263.388 274.234L263.381 274.238C263.192 274.351 262.689 274.65 262.111 274.718C261.775 274.758 261.066 274.757 260.458 274.197C259.866 273.651 259.794 272.962 259.794 272.633C259.794 271.902 260.152 271.308 260.307 271.063C260.44 270.851 260.593 270.644 260.742 270.457ZM286.47 266.91C286.47 266.91 286.467 266.912 286.461 266.914C286.467 266.911 286.47 266.91 286.47 266.91ZM284.578 265.531C284.578 265.524 284.578 265.52 284.578 265.52C284.578 265.52 284.578 265.523 284.578 265.531ZM284.94 269.476C284.94 269.476 284.941 269.475 284.944 269.473C284.941 269.475 284.94 269.476 284.94 269.476Z" fill="#D1D1D3"/>
<path fill-rule="evenodd" clip-rule="evenodd" d="M323.13 262.019C323.13 262.019 323.128 262.02 323.126 262.021C323.128 262.02 323.13 262.019 323.13 262.019ZM314.905 268.935C314.295 269.45 313.671 269.948 313.036 270.409C311.745 271.347 309.85 272.208 307.765 271.783C307.391 271.707 306.835 271.517 306.4 271.011C305.922 270.454 305.834 269.805 305.889 269.317C305.939 268.878 306.104 268.522 306.225 268.301C306.355 268.062 306.507 267.849 306.642 267.676C306.91 267.333 307.218 267.015 307.437 266.795C307.489 266.743 307.577 266.655 307.643 266.59C307.679 266.554 307.708 266.525 307.72 266.513C307.752 266.481 307.772 266.461 307.782 266.45C309.192 264.678 310.477 262.744 311.63 260.759C312.15 259.863 313.297 259.559 314.193 260.079C315.088 260.599 315.392 261.746 314.873 262.642C314.292 263.642 313.675 264.637 313.023 265.614C313.767 264.965 314.493 264.289 315.241 263.591C316.022 262.863 316.828 262.112 317.707 261.343C317.951 261.129 319.248 260.069 320.348 259.325C320.627 259.136 320.923 258.948 321.203 258.794C321.424 258.672 321.839 258.454 322.298 258.375C322.499 258.34 323.094 258.259 323.705 258.615C324.492 259.074 324.688 259.857 324.688 260.346C324.687 260.762 324.562 261.102 324.49 261.278C324.404 261.487 324.296 261.687 324.188 261.87C323.757 262.592 323.32 263.312 322.873 264.029C324.045 263.007 325.26 261.959 326.529 260.979C326.603 260.923 326.678 260.864 326.755 260.805C327.453 260.265 328.279 259.625 329.147 259.104C329.228 259.055 329.387 258.965 329.595 258.896L329.597 258.895C329.718 258.855 330.329 258.653 331.018 258.973C331.951 259.408 332.109 260.298 332.115 260.668C332.121 261.012 332.032 261.278 332.001 261.367C331.885 261.701 331.667 262.036 331.578 262.172C331.575 262.177 331.572 262.181 331.569 262.186C331.455 262.361 331.321 262.555 331.209 262.716C331.195 262.738 331.18 262.758 331.167 262.778C331.03 262.977 330.95 263.095 330.914 263.155C330.461 263.907 330.004 264.648 329.551 265.383C329.3 265.79 329.05 266.196 328.802 266.6C328.947 266.502 329.091 266.404 329.236 266.305C330.273 265.594 331.264 264.794 332.324 263.938C332.604 263.712 332.888 263.483 333.179 263.25C334.536 262.165 336.012 261.036 337.644 260.146C337.827 260.046 338.558 259.672 339.42 260.045C340.356 260.45 340.546 261.323 340.585 261.572C340.635 261.888 340.605 262.165 340.586 262.307C340.563 262.477 340.527 262.637 340.494 262.769C340.367 263.271 340.147 263.839 340.048 264.088C339.945 264.35 339.842 264.61 339.74 264.867C339.157 266.336 338.598 267.744 338.118 269.178C338.932 268.421 339.807 267.611 340.711 266.866C342.868 265.089 345.534 263.382 348.816 263.382C349.851 263.382 350.691 264.221 350.691 265.257C350.691 266.292 349.851 267.132 348.816 267.132C346.878 267.132 345.072 268.132 343.096 269.76C342.265 270.445 341.464 271.188 340.631 271.961C340.482 272.1 340.331 272.239 340.179 272.38C339.208 273.279 338.177 274.211 337.112 274.982C336.795 275.211 336.227 275.577 335.514 275.611C335.094 275.631 334.612 275.535 334.176 275.231C333.757 274.939 333.527 274.559 333.403 274.258C333.182 273.721 333.194 273.181 333.213 272.885C333.236 272.532 333.299 272.171 333.37 271.847C333.592 270.826 334.057 269.498 334.22 269.035C334.249 268.952 334.268 268.896 334.275 268.876C334.52 268.086 334.79 267.307 335.072 266.54C334.961 266.629 334.85 266.718 334.738 266.809C333.666 267.676 332.527 268.595 331.356 269.398C329.683 270.545 327.89 271.699 325.973 272.642C325.957 272.65 325.936 272.661 325.893 272.684C325.881 272.69 325.868 272.697 325.853 272.704C325.791 272.736 325.709 272.778 325.62 272.822C325.469 272.895 325.184 273.029 324.872 273.11C324.726 273.148 324.433 273.214 324.08 273.184C323.709 273.152 323.024 272.981 322.573 272.295C322.165 271.674 322.233 271.045 322.285 270.772C322.344 270.467 322.457 270.208 322.546 270.029C322.776 269.57 323.016 269.111 323.264 268.653C321.941 269.782 320.549 270.907 319.04 271.923C319.044 271.92 319.043 271.921 319.033 271.928C319.018 271.939 318.987 271.962 318.93 272.004C318.906 272.022 318.878 272.043 318.848 272.065C318.781 272.115 318.7 272.175 318.616 272.237C318.368 272.421 318.045 272.656 317.711 272.883C317.388 273.101 317.001 273.349 316.634 273.533C316.456 273.622 316.212 273.734 315.939 273.807C315.775 273.851 315.1 274.033 314.388 273.678C313.578 273.272 313.363 272.509 313.332 272.096C313.304 271.731 313.386 271.44 313.421 271.323C313.503 271.056 313.627 270.822 313.702 270.687C313.872 270.382 314.103 270.039 314.305 269.754C314.515 269.455 314.732 269.164 314.897 268.946C314.9 268.943 314.902 268.939 314.905 268.935ZM339.433 263.442C339.434 263.441 339.436 263.44 339.437 263.439L339.439 263.438C339.437 263.44 339.435 263.441 339.433 263.442ZM334.839 271.992C334.839 271.991 334.849 271.985 334.868 271.975C334.848 271.988 334.838 271.993 334.839 271.992ZM336.954 273.158C336.955 273.174 336.955 273.183 336.954 273.184C336.954 273.184 336.953 273.176 336.954 273.158ZM316.958 272.551C316.957 272.551 316.959 272.548 316.962 272.543C316.959 272.548 316.958 272.551 316.958 272.551Z" fill="#D1D1D3"/>
<path d="M221.893 169.238C211.673 182.212 201.427 195.154 191.292 208.178C188.71 210.465 186.27 216.976 182.348 215.986C181.122 214.937 181.678 212.757 182.537 211.518C189.065 199.724 195.993 188.128 202.017 176.084C198.587 178.392 174.483 214.456 173.384 204.099C173.419 200.428 176.844 197.213 176.46 193.594C175.893 192.149 176.299 190.998 177.309 189.847C184.846 181.493 192.9 173.461 202.05 166.906C221.212 151.228 248.199 144.616 268.36 162.368C269.492 163.456 270.618 162.52 271.804 162.105C274.143 161.38 274.175 164.304 273.961 165.88C279.905 173.196 288.746 179.663 294.234 188.034C297.086 192.937 306.351 202.161 300.642 207.265C296.43 210.066 292.685 211.613 289.001 207.117C282.814 214.42 275.67 220.353 278.009 205.544C274.581 207.752 272.423 212.183 268.851 214.505C257.858 218.56 270.572 195.577 269.726 190.998C263.376 200.225 259.523 211.697 251.853 219.804C242.612 224.033 266.167 180.587 266.607 176.117C258.981 188.085 252.761 201.385 245.116 213.512C240.721 220.39 240.797 224.486 231.425 222.498C236.84 206.175 247.483 190.26 251.396 173.429C240.268 187.114 229.887 201.388 219.49 215.621C216.86 219.362 214.195 224.78 208.831 223.893C217.058 206.77 229.522 190.694 237.198 172.853C234.37 174.305 190.693 240.979 196.661 218.177C204.721 201.709 214.897 186.252 222.119 169.375C222.044 169.326 221.969 169.277 221.894 169.228L221.893 169.238ZM207.909 205.191C215.643 195.239 223.333 185.141 230.803 174.937C234.526 171.152 237.205 162.846 243.051 162.792C245.841 170.819 233.849 186.648 230.227 194.491C233.802 191.545 255.284 156.133 255.785 172.743C251.455 189.434 242.288 204.605 236.352 220.555C247.243 203.642 256.304 185.659 266.424 168.273C267.218 166.987 267.216 166.745 265.974 165.825C249.752 151.764 228.024 153.078 211.02 165.001C206.966 175.432 201.39 185.967 195.878 195.947C205.791 184.396 214.315 171.637 224.56 160.427C238.593 154.219 209.648 200.984 207.93 205.183L207.909 205.191ZM268.866 209.704C274.863 203.084 282.986 192.553 282.047 209.256C284.818 207.072 288.606 199.701 292.36 204.035C293.992 207.054 295.539 206.388 297.932 204.341C299.377 202.909 297.137 200.705 296.661 199.18C290.554 188.773 282.464 179.404 273.193 171.7C272.489 171.175 272.169 171.329 271.999 172.185C270.078 179.683 266.643 186.612 263.278 193.64C265.481 191.833 271.944 175.249 275.437 182.945C275.589 192.094 270.221 200.842 268.867 209.694L268.866 209.704ZM196.367 176.624C189.548 181.487 182.403 187.863 180.297 196.256C185.86 189.988 191.081 183.458 196.367 176.624Z" fill="#D1D1D3"/>
<path fill-rule="evenodd" clip-rule="evenodd" d="M305.335 214.068C305.548 215.081 304.898 216.075 303.885 216.287L303.704 216.325C297.554 217.614 291.363 218.911 284.843 219.84C268.652 222.148 251.628 223.093 234.994 223.896C210.5 225.08 167.936 226.841 143.198 222.803C142.176 222.636 141.483 221.672 141.65 220.65C141.816 219.628 142.78 218.935 143.802 219.102C168.064 223.063 210.181 221.341 234.813 220.151C251.453 219.347 268.317 218.407 284.314 216.128C290.712 215.216 296.802 213.94 302.986 212.644L303.116 212.617C304.129 212.405 305.123 213.054 305.335 214.068Z" fill="black"/>
<path fill-rule="evenodd" clip-rule="evenodd" d="M255.464 220.03C256.249 220.706 256.338 221.889 255.663 222.675C254.301 224.259 254.338 225.257 254.415 227.308C254.436 227.859 254.459 228.486 254.459 229.221V250.174C254.459 252.725 254.441 255.262 254.423 257.792C254.387 262.823 254.351 267.824 254.459 272.843C254.516 275.501 255.464 277.085 256.949 278.154C258.558 279.313 260.993 280.007 264.241 280.336C267.457 280.661 271.223 280.608 275.324 280.465C276.34 280.429 277.377 280.388 278.429 280.347C281.576 280.222 284.851 280.092 288.071 280.092C288.506 280.092 289.385 280.122 290.469 280.158C290.727 280.167 290.996 280.176 291.273 280.185C292.749 280.233 294.527 280.287 296.262 280.308C298.006 280.33 299.669 280.319 300.927 280.244C301.563 280.206 302.039 280.154 302.35 280.096C302.39 280.089 302.424 280.082 302.452 280.076C303.101 279.638 303.982 279.639 304.639 280.141C305.461 280.77 305.619 281.947 304.99 282.769C304.608 283.269 304.092 283.478 303.88 283.558C303.6 283.664 303.303 283.733 303.038 283.783C302.499 283.883 301.843 283.946 301.151 283.987C299.754 284.071 297.981 284.08 296.215 284.058C294.44 284.036 292.631 283.981 291.15 283.933C290.849 283.923 290.564 283.913 290.297 283.904C289.222 283.868 288.437 283.842 288.071 283.842C284.932 283.842 281.765 283.968 278.637 284.091C277.571 284.134 276.509 284.176 275.455 284.213C271.351 284.356 267.359 284.42 263.864 284.066C260.401 283.716 257.17 282.935 254.757 281.197C252.22 279.369 250.79 276.633 250.71 272.924C250.601 267.853 250.637 262.756 250.673 257.692C250.691 255.175 250.709 252.667 250.709 250.174V229.221C250.709 228.784 250.687 228.333 250.664 227.869C250.552 225.599 250.424 223.016 252.82 220.23C253.495 219.445 254.679 219.355 255.464 220.03Z" fill="black"/>
<path fill-rule="evenodd" clip-rule="evenodd" d="M299.852 196.693C300.824 196.335 301.902 196.833 302.26 197.804C304.229 203.153 305.25 207.074 305.645 211.775C306.034 216.394 305.814 221.722 305.392 229.825C305.428 232.211 305.574 234.591 305.723 237.021C305.733 237.191 305.744 237.362 305.754 237.533C305.914 240.145 306.068 242.813 306.068 245.506C306.068 246.185 306.064 246.856 306.061 247.522C306.048 250.178 306.035 252.745 306.236 255.314C306.886 263.638 307.111 271.838 307.111 280.167C307.111 280.813 307.169 281.149 307.22 281.319C307.243 281.394 307.261 281.422 307.262 281.425C307.263 281.426 307.264 281.429 307.274 281.437C307.314 281.474 307.426 281.557 307.792 281.725C307.94 281.793 308.1 281.862 308.296 281.946C308.334 281.963 308.374 281.98 308.416 281.998C308.659 282.103 308.938 282.225 309.242 282.368C310.464 282.942 311.784 283.286 313.234 283.557C313.954 283.691 314.684 283.804 315.449 283.922L315.472 283.926C316.236 284.044 317.035 284.167 317.835 284.318C319.227 284.581 320.774 284.608 322.455 284.555C323.031 284.536 323.647 284.507 324.277 284.477C325.382 284.424 326.528 284.37 327.575 284.37H337.972C347.749 284.37 357.557 282.853 367.028 280.286C367.336 280.202 367.709 279.993 368.235 279.575C368.492 279.37 368.752 279.144 369.049 278.884L369.085 278.852C369.362 278.61 369.673 278.338 369.995 278.078C370.712 277.501 370.936 277.23 371.075 277.005C371.246 276.728 371.36 276.418 371.677 275.557C371.695 275.51 371.713 275.461 371.731 275.411C372.195 274.153 372.234 272.58 372.234 270.8C372.234 269.418 372.413 268.095 372.579 266.903L372.596 266.782C372.76 265.602 372.906 264.551 372.93 263.487C372.98 261.241 373.126 258.562 373.27 255.918C373.287 255.6 373.304 255.284 373.321 254.968C373.482 251.996 373.625 249.142 373.625 246.952C373.625 245.917 374.464 245.077 375.5 245.077C376.536 245.077 377.375 245.917 377.375 246.952C377.375 249.262 377.225 252.219 377.066 255.171C377.049 255.486 377.031 255.802 377.014 256.118C376.87 258.775 376.727 261.389 376.679 263.57C376.65 264.859 376.476 266.107 376.319 267.232C376.31 267.295 376.302 267.357 376.293 267.419C376.125 268.631 375.984 269.712 375.984 270.8C375.984 272.466 375.983 274.72 375.249 276.709C375.217 276.797 375.185 276.884 375.153 276.972C374.898 277.669 374.647 278.357 374.267 278.974C373.797 279.735 373.186 280.323 372.348 280.999C372.087 281.209 371.827 281.436 371.533 281.694L371.519 281.706C371.23 281.959 370.906 282.242 370.569 282.51C369.908 283.036 369.055 283.621 368.01 283.905C358.272 286.545 348.132 288.12 337.972 288.12H327.575C326.597 288.12 325.634 288.166 324.61 288.216C323.962 288.247 323.289 288.28 322.574 288.303C320.821 288.358 318.944 288.343 317.14 288.003C316.411 287.866 315.672 287.751 314.9 287.632L314.852 287.624C314.104 287.509 313.324 287.388 312.546 287.243C310.954 286.946 309.282 286.53 307.647 285.762C307.397 285.645 307.161 285.541 306.926 285.44C306.891 285.425 306.855 285.409 306.819 285.394C306.624 285.309 306.418 285.22 306.227 285.132C305.783 284.929 305.232 284.651 304.747 284.208C303.622 283.182 303.361 281.781 303.361 280.167C303.361 271.905 303.138 263.807 302.497 255.607C302.283 252.866 302.297 250.102 302.311 247.432C302.314 246.784 302.318 246.142 302.318 245.506C302.318 242.942 302.171 240.379 302.011 237.761C302 237.585 301.99 237.408 301.979 237.231C301.83 234.799 301.677 232.315 301.642 229.816L301.641 229.754L301.644 229.692C302.071 221.493 302.273 216.417 301.909 212.089C301.55 207.83 300.637 204.252 298.741 199.1C298.383 198.128 298.88 197.051 299.852 196.693Z" fill="black"/>
<path fill-rule="evenodd" clip-rule="evenodd" d="M238.696 51.3591C224.331 52.352 210.045 53.3394 196.927 52.8256C187.77 52.467 180.084 53.5975 172.296 55.0778C170.588 55.4026 168.868 55.7456 167.125 56.0934C160.952 57.3251 154.478 58.6167 147.104 59.3727C146.336 59.4515 145.301 59.4956 144.265 59.5398C143.55 59.5703 142.835 59.6009 142.207 59.6428C140.438 59.7608 139.073 59.9727 138.307 60.3379C137.372 60.7835 136.253 60.387 135.807 59.4522C135.362 58.5174 135.758 57.3984 136.693 56.9528C138.188 56.2403 140.233 56.0161 141.957 55.9011C142.828 55.843 143.611 55.8116 144.327 55.783C145.218 55.7473 146.004 55.7158 146.722 55.6422C153.902 54.9062 160.152 53.6597 166.298 52.4337C168.066 52.0811 169.826 51.7303 171.596 51.3937C179.495 49.8922 187.502 48.7037 197.073 49.0785C209.969 49.5836 224.001 48.6144 238.359 47.6229C241.539 47.4032 244.736 47.1825 247.94 46.9764C265.525 45.8452 283.284 45.1616 299.346 47.6752C315.436 50.1933 329.984 55.9438 340.997 67.8045C351.988 79.6409 359.247 97.3328 361.257 123.315C361.838 125.907 362.484 128.527 363.135 131.167C364.824 138.02 366.548 145.017 367.276 152.06C367.497 154.206 368.147 156.36 368.86 158.725C368.942 158.999 369.026 159.276 369.11 159.557C369.89 162.165 370.686 165.027 370.686 167.973C370.686 171.063 371.194 174.165 371.827 177.388C371.963 178.081 372.106 178.783 372.25 179.492C372.764 182.026 373.297 184.648 373.611 187.263C375.632 204.094 377.052 230.522 377.052 247.452C377.052 248.488 376.213 249.327 375.177 249.327C374.142 249.327 373.302 248.488 373.302 247.452C373.302 230.653 371.889 204.375 369.888 187.71C369.594 185.261 369.102 182.838 368.592 180.329C368.444 179.598 368.294 178.859 368.147 178.111C367.506 174.846 366.936 171.446 366.936 167.973C366.936 165.639 366.302 163.257 365.517 160.631C365.435 160.356 365.351 160.078 365.265 159.797C364.566 157.485 363.806 154.972 363.545 152.445C362.847 145.678 361.219 139.076 359.555 132.323C358.879 129.582 358.197 126.815 357.568 124.003L357.539 123.871L357.529 123.737C355.575 98.2225 348.505 81.4005 338.249 70.3562C327.997 59.3158 314.348 53.8187 298.766 51.3801C283.155 48.9369 265.766 49.5875 248.18 50.7186C245.023 50.9217 241.858 51.1405 238.696 51.3591Z" fill="black"/>
<path fill-rule="evenodd" clip-rule="evenodd" d="M341.226 260.049C334.413 259.407 327.713 258.775 321.33 260.129C319.002 260.623 316.986 261.393 315.942 262.65C315.281 263.447 314.099 263.556 313.302 262.895C312.505 262.233 312.396 261.051 313.058 260.254C314.985 257.934 318.155 256.97 320.552 256.461C327.499 254.987 334.689 255.666 341.316 256.291C341.436 256.302 341.556 256.314 341.676 256.325C342.707 256.422 343.464 257.337 343.367 258.368C343.27 259.399 342.355 260.156 341.324 260.058L341.226 260.049Z" fill="black"/>
<path fill-rule="evenodd" clip-rule="evenodd" d="M283.523 259.928C279.256 259.616 275.14 259.345 270.988 259.486C267.78 259.595 265.205 260.293 262.037 261.241C261.045 261.537 260 260.973 259.704 259.981C259.407 258.989 259.971 257.944 260.963 257.648C264.168 256.689 267.138 255.865 270.86 255.738C275.238 255.589 279.537 255.876 283.797 256.188C284.83 256.263 285.606 257.162 285.53 258.195C285.455 259.227 284.556 260.003 283.523 259.928Z" fill="black"/>
<path fill-rule="evenodd" clip-rule="evenodd" d="M91.6991 215.43C91.9874 214.435 93.0274 213.863 94.022 214.151C95.112 214.467 96.0139 214.732 96.7762 214.957C99.0215 215.618 100.056 215.922 101.115 216.109C102.198 216.301 103.259 216.361 105.653 216.497C106.374 216.538 107.216 216.585 108.216 216.646C110.267 216.769 110.708 216.789 111.457 216.823C111.972 216.847 112.633 216.877 114.063 216.952C115.097 217.006 115.891 217.888 115.837 218.923C115.783 219.957 114.9 220.751 113.866 220.697C112.493 220.625 111.834 220.595 111.311 220.571C110.534 220.535 110.059 220.513 107.99 220.389C107.093 220.335 106.308 220.291 105.613 220.251C103.132 220.112 101.783 220.036 100.462 219.802C99.1808 219.576 97.8788 219.192 95.5258 218.499C94.7899 218.282 93.9511 218.035 92.978 217.753C91.9834 217.465 91.4109 216.425 91.6991 215.43Z" fill="black"/>
<path fill-rule="evenodd" clip-rule="evenodd" d="M49.6436 132.234C50.5927 132.648 51.0266 133.753 50.6126 134.702C43.5633 150.863 40.1005 176.365 38.9928 202.171C37.8876 227.916 39.1356 253.679 41.3585 270.202L41.3752 270.327V270.452C41.3752 272.878 41.4902 275.191 42.3078 277.092C43.0607 278.843 44.465 280.369 47.4642 281.135C54.4659 282.925 58.8927 283.577 64.5 283.577C69.2942 283.577 75.3586 283.076 80.6973 282.635C81.908 282.534 83.0815 282.437 84.1942 282.35C91.0661 281.811 94.1604 279.554 95.655 277.019C97.2473 274.319 97.3498 270.814 97.1283 267.063C96.8989 263.179 97.2299 255.116 97.758 246.235C98.2892 237.304 99.0293 227.407 99.6441 219.771C99.7272 218.739 100.631 217.969 101.664 218.052C102.696 218.135 103.465 219.04 103.382 220.072C102.768 227.695 102.03 237.563 101.501 246.458C100.969 255.402 100.658 263.225 100.872 266.842C101.093 270.591 101.111 275.15 98.8851 278.924C96.5617 282.864 92.1051 285.491 84.4878 286.089C83.4142 286.173 82.2695 286.268 81.0784 286.366C75.7387 286.808 69.4668 287.327 64.5 287.327C58.495 287.327 53.7462 286.611 46.5358 284.769C42.4289 283.719 40.0833 281.411 38.8629 278.574C37.7271 275.933 37.6284 272.963 37.6253 270.578C35.379 253.799 34.1358 227.876 35.2462 202.01C36.3568 176.139 39.8308 150.041 47.1753 133.203C47.5893 132.253 48.6944 131.819 49.6436 132.234Z" fill="black"/>
<path fill-rule="evenodd" clip-rule="evenodd" d="M72.3268 258.738C67.8544 257.778 63.6319 257.276 58.9643 257.159C55.5137 257.072 53.046 257.543 49.9596 258.323C48.9557 258.577 47.936 257.969 47.6822 256.965C47.4283 255.961 48.0364 254.941 49.0403 254.688C52.2931 253.865 55.1305 253.311 59.0588 253.41C63.9565 253.533 68.4109 254.062 73.1136 255.071C74.1261 255.288 74.7707 256.285 74.5535 257.298C74.3362 258.31 73.3393 258.955 72.3268 258.738Z" fill="black"/>
<path fill-rule="evenodd" clip-rule="evenodd" d="M47.5 273.577C48.5355 273.577 49.375 274.417 49.375 275.452V282.452C49.375 283.488 48.5355 284.327 47.5 284.327C46.4645 284.327 45.625 283.488 45.625 282.452V275.452C45.625 274.417 46.4645 273.577 47.5 273.577Z" fill="black"/>
<path fill-rule="evenodd" clip-rule="evenodd" d="M57.5 273.577C58.5355 273.577 59.375 274.417 59.375 275.452V283.452C59.375 284.488 58.5355 285.327 57.5 285.327C56.4645 285.327 55.625 284.488 55.625 283.452V275.452C55.625 274.417 56.4645 273.577 57.5 273.577Z" fill="black"/>
<path fill-rule="evenodd" clip-rule="evenodd" d="M67.5 275.577C68.5355 275.577 69.375 276.417 69.375 277.452V284.452C69.375 285.488 68.5355 286.327 67.5 286.327C66.4645 286.327 65.625 285.488 65.625 284.452V277.452C65.625 276.417 66.4645 275.577 67.5 275.577Z" fill="black"/>
<path d="M103.5 266.452L108.5 206.952L168.5 211.452L164.5 280.452L156.5 285.952L130 287.452L106.5 283.452L103.5 266.452Z" fill="white"/>
<path fill-rule="evenodd" clip-rule="evenodd" d="M124.626 259.205C124.626 259.205 124.625 259.206 124.622 259.209C124.625 259.206 124.626 259.205 124.626 259.205ZM122.925 260.476C123.057 260.376 123.187 260.277 123.318 260.178C123.464 260.067 123.656 259.915 123.869 259.746C124.088 259.573 124.33 259.382 124.568 259.198C124.66 259.128 124.766 259.048 124.853 258.987C124.877 258.97 124.911 258.947 124.95 258.922L124.952 258.921C124.977 258.905 125.068 258.847 125.189 258.791L125.192 258.79C125.236 258.769 125.424 258.682 125.68 258.64C125.802 258.62 126.127 258.577 126.519 258.694C127.009 258.84 127.524 259.223 127.752 259.867C127.933 260.381 127.839 260.814 127.796 260.974C127.745 261.166 127.674 261.308 127.638 261.376C127.563 261.517 127.487 261.617 127.46 261.651C127.332 261.816 127.149 261.981 127.088 262.037C127.083 262.042 127.078 262.046 127.075 262.049C126.961 262.153 126.803 262.294 126.595 262.476C124.85 264.008 123.153 265.632 121.469 267.291C122.637 266.752 123.833 266.177 125.044 265.596C127.25 264.537 129.504 263.455 131.728 262.515C131.851 262.463 132.027 262.377 132.308 262.239C132.565 262.113 132.883 261.956 133.213 261.81C133.54 261.666 133.921 261.513 134.31 261.4C134.676 261.294 135.188 261.182 135.735 261.227L135.738 261.228C135.872 261.239 136.694 261.307 137.206 262.098C137.787 262.994 137.384 263.849 137.296 264.02C137.166 264.272 137.007 264.445 136.946 264.511C136.865 264.596 136.787 264.667 136.733 264.715C136.629 264.806 136.517 264.893 136.454 264.942L136.447 264.947C136.379 265 136.359 265.016 136.359 265.016C136.359 265.016 136.362 265.013 136.366 265.009C136.055 265.287 135.854 265.462 135.686 265.608C135.369 265.884 135.173 266.056 134.586 266.608C134.132 267.036 133.676 267.461 133.221 267.884C132.828 268.25 132.436 268.615 132.048 268.979C133.612 268.127 135.124 267.19 136.618 266.153C136.974 265.906 137.41 265.642 137.884 265.507C138.344 265.377 139.443 265.237 140.208 266.197C140.77 266.902 140.694 267.715 140.669 267.951C140.631 268.311 140.535 268.663 140.445 268.943C140.297 269.41 140.087 269.918 139.899 270.353C140.656 270.874 140.933 271.887 140.51 272.734C140.511 272.732 140.51 272.733 140.508 272.738C140.502 272.752 140.482 272.796 140.442 272.892C140.415 272.956 140.388 273.02 140.358 273.091C140.331 273.156 140.301 273.227 140.266 273.31C140.129 273.636 139.949 274.055 139.753 274.462C139.567 274.848 139.321 275.319 139.037 275.704C138.903 275.887 138.68 276.163 138.365 276.389C138.066 276.604 137.346 277.003 136.449 276.703C135.442 276.368 135.149 275.475 135.073 275.173C134.979 274.802 134.978 274.441 134.988 274.199C135.01 273.687 135.113 273.111 135.216 272.63C135.317 272.157 135.438 271.685 135.543 271.303C133.782 272.351 131.967 273.291 130.055 274.137C130.06 274.134 130.045 274.141 129.982 274.171L129.774 274.27C129.604 274.35 129.379 274.456 129.123 274.572C128.619 274.801 127.963 275.087 127.348 275.309C127.042 275.419 126.711 275.527 126.394 275.603C126.14 275.663 125.655 275.766 125.148 275.69C124.882 275.65 124.379 275.527 123.948 275.091C123.453 274.59 123.33 273.964 123.371 273.479C123.407 273.058 123.561 272.725 123.666 272.529C123.782 272.314 123.922 272.117 124.057 271.945C124.869 270.917 125.765 269.924 126.696 268.964C125.262 269.653 123.806 270.352 122.272 271.047C121.584 271.359 120.911 271.657 120.246 271.951C118.942 272.528 117.672 273.09 116.398 273.709C116.396 273.711 116.393 273.712 116.391 273.713L116.393 273.712C116.395 273.711 116.396 273.71 116.398 273.709C116.434 273.692 116.431 273.694 116.2 273.827C116.034 273.923 115.806 274.052 115.563 274.176C115.336 274.292 115.03 274.439 114.722 274.542C114.573 274.591 114.341 274.659 114.073 274.683C113.876 274.702 113.248 274.741 112.65 274.307C111.973 273.815 111.864 273.101 111.869 272.743C111.874 272.41 111.965 272.157 112.003 272.057C112.089 271.834 112.202 271.657 112.254 271.576C112.38 271.384 112.541 271.18 112.686 271.004C112.99 270.634 113.399 270.178 113.796 269.746C113.801 269.74 113.807 269.734 113.813 269.728C113.024 269.887 112.217 269.976 111.395 269.976C111.121 269.976 110.618 269.959 110.131 269.722C109.854 269.588 109.478 269.331 109.222 268.868C108.952 268.382 108.934 267.883 109.009 267.499C109.132 266.871 109.519 266.455 109.645 266.32C109.833 266.121 110.041 265.95 110.215 265.817C110.764 265.398 111.605 264.909 111.859 264.761C111.898 264.739 111.923 264.724 111.932 264.719C114.8 262.931 117.324 261.242 119.829 259.091C120.615 258.417 121.799 258.507 122.473 259.293C122.768 259.637 122.917 260.056 122.925 260.476ZM111.344 266.224C111.345 266.224 111.355 266.224 111.375 266.226C111.353 266.226 111.344 266.225 111.344 266.224ZM136.002 273.5C136.002 273.5 136.005 273.496 136.011 273.49C136.005 273.497 136.002 273.5 136.002 273.5ZM138.734 274.401C138.734 274.407 138.735 274.41 138.734 274.41C138.734 274.41 138.734 274.407 138.734 274.401ZM125.432 271.973C125.433 271.973 125.439 271.972 125.451 271.97C125.438 271.973 125.432 271.973 125.432 271.973ZM113.538 270.984C113.531 270.986 113.533 270.985 113.541 270.983C113.54 270.983 113.539 270.983 113.538 270.984Z" fill="#D1D1D3"/>
<path fill-rule="evenodd" clip-rule="evenodd" d="M108.789 203.582C109.821 203.657 110.598 204.555 110.523 205.588C110.004 212.739 109.349 219.855 108.697 226.952C107.282 242.335 105.875 257.63 105.875 273.006C105.875 273.992 105.881 276.103 106.399 278.143C106.933 280.245 107.864 281.724 109.305 282.259C115.931 284.718 125.091 285.964 134.398 285.953C143.701 285.941 152.942 284.673 159.72 282.251C160.339 282.03 161.302 281.365 162.091 280.433C162.913 279.463 163.181 278.643 163.138 278.202C162.266 269.284 163.032 255.367 163.992 242.465C164.291 238.446 164.608 234.53 164.904 230.878C165.569 222.678 166.125 215.81 166.125 212.099C166.125 211.063 166.964 210.224 168 210.224C169.036 210.224 169.875 211.063 169.875 212.099C169.875 215.969 169.297 223.108 168.623 231.425C168.331 235.033 168.021 238.863 167.732 242.744C166.767 255.71 166.035 269.297 166.87 277.837C167.061 279.787 166.012 281.606 164.953 282.857C163.861 284.145 162.381 285.283 160.982 285.782C153.672 288.394 143.972 289.691 134.403 289.703C124.837 289.715 115.191 288.444 108 285.775C104.789 284.583 103.393 281.543 102.764 279.066C102.125 276.548 102.125 274.038 102.125 273.032L102.125 273.006C102.125 257.456 103.558 241.871 104.98 226.398C105.629 219.343 106.275 212.311 106.783 205.317C106.858 204.284 107.756 203.507 108.789 203.582Z" fill="black"/>
<path fill-rule="evenodd" clip-rule="evenodd" d="M136.599 262.743C129.205 261.126 122.57 260.437 115.698 263.192C114.737 263.578 113.645 263.111 113.26 262.15C112.874 261.189 113.341 260.097 114.302 259.712C122.25 256.526 129.809 257.42 137.401 259.08C138.412 259.301 139.053 260.301 138.832 261.312C138.611 262.324 137.611 262.965 136.599 262.743Z" fill="black"/>
<path fill-rule="evenodd" clip-rule="evenodd" d="M119.963 275.23C120.998 275.23 121.838 276.069 121.838 277.105C121.838 278.228 121.926 279.354 122.022 280.566L122.024 280.6C122.118 281.778 122.218 283.04 122.218 284.323C122.218 285.358 121.378 286.198 120.343 286.198C119.307 286.198 118.468 285.358 118.468 284.323C118.468 283.201 118.379 282.075 118.283 280.862L118.281 280.83C118.188 279.651 118.088 278.389 118.088 277.105C118.088 276.069 118.927 275.23 119.963 275.23Z" fill="black"/>
<path fill-rule="evenodd" clip-rule="evenodd" d="M131 277.577C132.036 277.577 132.875 278.417 132.875 279.452V285.91C132.875 286.946 132.036 287.785 131 287.785C129.964 287.785 129.125 286.946 129.125 285.91V279.452C129.125 278.417 129.964 277.577 131 277.577Z" fill="black"/>
<path fill-rule="evenodd" clip-rule="evenodd" d="M112 274.577C113.036 274.577 113.875 275.417 113.875 276.452V282.91C113.875 283.946 113.036 284.785 112 284.785C110.964 284.785 110.125 283.946 110.125 282.91V276.452C110.125 275.417 110.964 274.577 112 274.577Z" fill="black"/>
<path fill-rule="evenodd" clip-rule="evenodd" d="M317.235 275.596C318.26 275.45 319.21 276.162 319.356 277.187C319.817 280.411 320.164 282.679 321.903 284.523C322.614 285.277 322.579 286.464 321.825 287.174C321.072 287.884 319.885 287.849 319.175 287.096C316.584 284.348 316.105 280.971 315.69 278.044C315.675 277.935 315.659 277.826 315.644 277.718C315.497 276.692 316.21 275.743 317.235 275.596Z" fill="black"/>
<path fill-rule="evenodd" clip-rule="evenodd" d="M328.837 273.85C329.873 273.85 330.712 274.69 330.712 275.725C330.712 277.037 331.431 278.412 332.665 280.144C332.956 280.552 333.259 280.959 333.574 281.383L333.593 281.409C333.911 281.836 334.242 282.28 334.558 282.727C335.185 283.611 335.814 284.586 336.259 285.623C336.667 286.575 336.226 287.677 335.274 288.085C334.322 288.493 333.22 288.052 332.812 287.1C332.525 286.43 332.077 285.711 331.498 284.894C331.211 284.489 330.907 284.08 330.586 283.649L330.557 283.61C330.248 283.196 329.925 282.761 329.611 282.32C328.362 280.567 326.962 278.331 326.962 275.725C326.962 274.69 327.802 273.85 328.837 273.85Z" fill="black"/>
<path fill-rule="evenodd" clip-rule="evenodd" d="M266.5 272.577C267.536 272.577 268.375 273.417 268.375 274.452C268.375 275.721 268.595 276.561 268.967 277.312C269.369 278.123 269.986 278.914 270.971 280.08C271.64 280.871 271.54 282.054 270.749 282.722C269.958 283.391 268.775 283.291 268.107 282.5C267.138 281.353 266.236 280.246 265.607 278.977C264.948 277.646 264.625 276.224 264.625 274.452C264.625 273.417 265.464 272.577 266.5 272.577Z" fill="black"/>
<path fill-rule="evenodd" clip-rule="evenodd" d="M257.5 271.577C258.536 271.577 259.375 272.417 259.375 273.452C259.375 276.341 259.692 277.686 260.309 279.961C260.581 280.96 259.991 281.99 258.991 282.262C257.992 282.533 256.962 281.943 256.691 280.944C256.023 278.484 255.625 276.789 255.625 273.452C255.625 272.417 256.464 271.577 257.5 271.577Z" fill="black"/>
<path fill-rule="evenodd" clip-rule="evenodd" d="M309.5 274.577C310.536 274.577 311.375 275.417 311.375 276.452C311.375 279.341 311.692 280.686 312.309 282.961C312.581 283.96 311.991 284.99 310.991 285.262C309.992 285.533 308.962 284.943 308.691 283.944C308.023 281.484 307.625 279.789 307.625 276.452C307.625 275.417 308.464 274.577 309.5 274.577Z" fill="black"/>
<path fill-rule="evenodd" clip-rule="evenodd" d="M277.82 271.637C278.819 271.364 279.85 271.953 280.122 272.952C280.157 273.08 280.192 273.208 280.227 273.336C280.561 274.571 280.896 275.807 281.398 276.923C281.95 278.149 282.594 278.969 283.381 279.392C284.293 279.883 284.634 281.021 284.143 281.932C283.652 282.844 282.515 283.185 281.603 282.694C279.776 281.71 278.685 280.032 277.979 278.462C277.346 277.056 276.933 275.526 276.61 274.329C276.574 274.195 276.539 274.064 276.505 273.939C276.232 272.94 276.821 271.909 277.82 271.637Z" fill="black"/>
<path fill-rule="evenodd" clip-rule="evenodd" d="M361.639 74.1005C361.025 73.8885 360.244 73.8291 359.253 73.9451C355.387 74.3979 351.6 77.1321 349.836 80.6177C349.369 81.5417 348.241 81.9118 347.317 81.4444C346.393 80.9769 346.023 79.8489 346.49 78.9249C348.796 74.3663 353.647 70.826 358.816 70.2206C360.144 70.0651 361.538 70.0985 362.863 70.556C364.226 71.0266 365.403 71.9083 366.312 73.254C368.557 76.5765 369.26 80.6353 369.359 84.2332C369.501 89.3755 367.72 95.1465 361.677 97.211C359.953 97.8001 357.464 98.1623 355.404 97.5874C354.887 97.4432 354.252 97.198 353.745 96.6199C353.324 96.1391 353.135 95.567 353.037 95.2715C353.032 95.2562 353.027 95.2416 353.023 95.2279C352.695 94.2455 353.226 93.1836 354.209 92.8562C355.182 92.5317 356.234 93.0501 356.571 94.0155C357.648 94.259 359.221 94.0872 360.465 93.6623C364.228 92.3767 365.732 88.7616 365.61 84.3366C365.52 81.0659 364.879 77.8309 363.205 75.3532C362.739 74.6639 362.215 74.2995 361.639 74.1005Z" fill="black"/>
<path d="M159.005 54.2536L173.068 86.6187L173.498 95.6084C159.404 119.109 125.695 135.771 110.602 141.165C109.144 142.069 100.633 144.145 78.2587 145.215C55.8843 146.285 33.6227 125.992 25.2887 115.712C21.7037 107.04 14.7047 89.0872 15.3891 86.6517C16.0735 84.2162 28.6087 70.0011 34.7908 63.198L40.8534 53.8978L33.0753 48.2629L30.0287 36.8955L35.568 27.1197L45.0094 25.667L57.1868 29.0891C59.7636 30.6344 65.0218 33.8202 65.4404 34.2006C65.8591 34.5811 68.5637 33.217 69.8636 32.4874L79.4483 34.0312L74.4757 24.2576L81.2527 19.4284C84.971 20.4185 92.6072 22.3893 93.4063 22.3511C94.2053 22.3128 106.884 25.0436 113.123 26.4138L108.982 13.0964L130.316 19.5846L152.532 34.0397L162.566 24.0489L179.547 23.2368L184.687 36.5064L176.698 47.4005L159.005 54.2536Z" fill="white"/>
<path d="M46.8985 34.2189C46.8628 36.1929 52.9651 34.8398 53.0195 37.6504C53.1293 39.5273 51.4045 39.4697 50.5648 40.7512C52.356 42.6178 58.8608 43.6082 57.3517 46.8039C54.5548 51.1225 49.9015 44.0467 46.7582 43.0057C46.5133 43.538 46.8492 43.8623 47.0167 44.2247C48.241 46.1684 45.5367 49.7017 43.7962 47.222C41.538 43.3354 39.9493 38.7962 41.1651 34.4932L46.9085 34.2185L46.8985 34.2189Z" fill="#D1D1D3"/>
<path d="M76.991 89.4342C79.5484 88.6912 82.0074 87.9829 84.4963 89.5758C89.7052 91.7294 95.7286 92.913 99.1358 98.0061C104.968 105.656 94.191 112.048 88.2864 115.024C85.3761 115.924 80.3508 120.329 77.693 118.554C77.3432 117.94 76.7986 117.856 76.1912 117.925C73.1424 118.441 69.9513 118.704 67.2159 116.983C65.0314 115.475 62.1286 115.904 60.1571 114.037C58.659 112.647 56.5053 112.619 54.9045 113.897C52.9884 115.491 51.2812 117.475 48.6976 117.878C48.4507 117.95 48.201 117.962 48.0278 117.69C47.8241 116.989 48.8063 117.012 48.8181 116.421C46.1507 116.749 43.1046 118.787 39.9553 118.667C38.0083 118.149 33.3363 121.777 33.0979 119.305C29.7545 112.197 22.6788 114.548 29.5875 105.147C29.2131 104.854 28.9849 105.106 28.7518 105.257C24.1206 108.482 21.7984 103.467 24.7704 99.881C26.0997 96.4836 35.6597 89.3487 34.2668 97.2743C35.5267 97.0338 36.4136 95.9002 37.5488 95.3553C38.8263 94.6435 39.1298 94.7091 39.9895 95.9394C42.0342 97.6637 44.8773 91.1704 46.0452 89.6329C51.4548 76.5195 71.5116 76.3911 76.981 89.4347L76.991 89.4342ZM50.0434 93.6865C54.3455 92.7899 58.4895 91.5205 62.8707 91.0206C60.9621 89.6302 58.053 89.5091 57.7397 86.1001C55.1518 88.927 52.5495 91.244 50.0534 93.686L50.0434 93.6865ZM76.2747 110.252C78.6018 111.182 80.9146 112.023 83.7152 111.969C82.8279 108.277 78.7333 107.652 76.2747 110.252ZM71.1488 94.9697C71.6696 92.4619 70.248 90.9982 68.9244 89.2794C66.196 93.3544 66.2545 93.7421 71.1488 94.9697ZM89.4177 104.558C88.2149 102.853 84.1874 99.6521 82.6519 99.1549C83.9918 101.634 86.1316 105.556 89.4177 104.558ZM96.4791 104.21C97.539 102.297 94.4582 97.9595 91.8126 97.4853C92.2375 100.508 95.3265 101.462 96.4791 104.21ZM68.4451 99.3538C69.5831 100.331 70.6901 101.289 71.7026 102.362C75.4346 102.734 70.3861 98.4901 68.4451 99.3538ZM39.2085 111.845C40.2097 111.847 41.6754 112.558 42.3825 111.643C42.1742 109.801 39.7793 109.545 39.2085 111.845ZM32.547 98.1575C31.3522 98.2947 30.234 98.5684 29.4951 99.655C30.5233 99.1753 31.73 99.0775 32.547 98.1575Z" fill="#D1D1D3"/>
<path d="M104.622 157.031C89.1153 155.591 72.8411 159.032 57.2571 160.158C48.6057 154.685 72.9619 154.651 75.5825 153.555C64.5852 152.199 62.6673 151.63 51.6698 149.433C50.3284 149.226 48.5115 149.544 48.6282 147.796C48.7306 141.774 62.3599 148.341 66.3604 147.629C77.6053 149.764 79.7858 146.406 91.0448 145.697C99.8675 145.125 108.737 144.47 117.58 145.179C120.761 144.897 118.336 149.037 121.251 148.868C127.62 148.903 133.963 149.03 140.333 148.866C143.631 148.128 143.24 152.501 140.989 153.18C131.988 153.79 122.658 153.596 113.687 153.574C114.236 162.328 98.6766 161.46 92.8856 164.09C97.5281 164.449 102.339 164.149 106.885 165.203C112.31 169.168 102.648 171.232 99.611 171.577C97.1125 172.087 100.344 174.335 95.2478 175.801C101.67 177.165 97.3467 182.218 92.7685 181.946C91.8272 181.941 91.2226 181.649 91.1644 180.641C89.675 177.759 83.0427 178.917 79.9736 177.752C72.6397 176.171 80.741 171.609 83.7872 170.412C86.5368 169.289 89.5958 169.824 92.2982 168.763C80.8057 167.521 69.0402 168.314 57.453 168.858C56.1083 169.003 54.3222 168.708 54.007 167.141C53.8551 163.965 58.1959 164.298 60.3815 163.943C75.145 163.036 90.6351 160.994 104.611 157.022L104.622 157.031Z" fill="#D1D1D3"/>
<path d="M164.097 40.7877C162.53 41.7236 161.799 43.4005 160.306 44.4129C158.272 46.062 156.041 43.1652 157.877 41.5757C158.599 40.7603 159.882 40.3786 160.398 39.4329C159.205 38.3486 157.492 37.079 158.972 35.3763C168.118 25.4281 171.034 33.8584 167.344 42.945C166.871 43.5383 166.341 44.1743 165.479 43.9353C164.073 43.4318 164.74 41.8782 164.097 40.7877Z" fill="#D1D1D3"/>
<path d="M151.079 80.5146C153.836 79.9623 153.831 83.4165 151.938 84.2378C149.5 84.7549 138.764 88.0215 138.016 85.3742C137.781 80.4498 147.679 81.8486 151.08 80.5246L151.079 80.5146Z" fill="#D1D1D3"/>
<path d="M153.239 88.1903C156.582 87.1393 156.558 91.6656 154.197 92.109C150.371 91.6512 142.847 95.9456 140.577 92.2198C140.926 87.7981 149.912 89.3806 153.225 88.1108C153.226 88.1408 153.227 88.1608 153.229 88.1908L153.239 88.1903Z" fill="#D1D1D3"/>
<path d="M138.893 103.893C136.503 104.799 133.458 101.63 136.51 100.123C140.259 99.5932 144.083 98.9598 147.894 98.4672C148.732 98.4071 149.072 98.8313 149.151 99.6385C149.579 103.983 141.854 103.011 138.893 103.893Z" fill="#D1D1D3"/>
<path d="M20.0665 92.5771C18.8274 92.4161 16.7914 93.3845 16.1989 91.8811C15.2391 87.9324 20.8667 88.5843 23.322 88.4268C23.9018 88.4091 24.2201 88.7843 24.4147 89.2956C25.3619 92.1436 22.197 92.7455 20.0765 92.5766L20.0665 92.5771Z" fill="#D1D1D3"/>
<path d="M26.4942 83.8001C27.0889 88.9075 18.1767 84.8887 20.053 81.8355C21.5361 79.5621 26.3705 81.4233 26.4942 83.8001Z" fill="#D1D1D3"/>
<path d="M22.8578 98.6212C22.9321 101.221 19.0564 102.868 18.7954 99.2961C18.8322 97.5523 22.5257 95.8639 22.8578 98.6212Z" fill="#D1D1D3"/>
<path d="M50.2585 100.474C50.3103 100.511 51.0044 98.4857 51.0119 98.0148C51.009 97.9549 48.8591 98.2179 48.2727 98.5162C47.9497 98.6718 49.1191 99.6771 50.2585 100.474Z" fill="black"/>
<path fill-rule="evenodd" clip-rule="evenodd" d="M36.539 133.467C36.389 130.33 23.6242 124.674 13.9539 95.8027C11.9806 89.9202 13.778 87.1011 16.5405 82.2737C24.3288 68.656 38.0514 57.7079 37.9554 55.7002C37.8278 53.0333 28.6666 49.8773 28.2443 41.0474C27.9495 34.8845 32.0269 23.8471 41.7857 23.3803C47.7289 23.0961 61.2723 26.1926 61.4969 30.8872C61.5628 32.2656 60.3854 33.6034 59.4764 33.6469C58.1679 33.7095 58.8379 32.6463 55.144 30.5604C50.0401 27.6709 44.0944 27.4847 41.1678 27.6247C35.3444 27.9032 32.1089 34.1449 32.3903 40.0282C32.815 48.9081 42.7511 52.1471 43.783 52.9987C45.6593 54.5509 45.296 57.4215 43.3183 57.5161C41.3405 57.6107 42.2284 56.9175 34.0339 65.8091C26.6677 73.8102 20.3815 80.5282 17.3239 89.0239C17.032 89.8288 16.8865 90.1361 16.9242 90.9252C17.0843 94.2714 21.8622 103.534 21.9621 103.529C22.042 103.525 22.1956 103.388 22.1775 103.008C21.8584 96.3357 19.8846 90.6535 64.6535 88.5122C77.6087 87.8926 78.6636 87.762 78.7501 89.57C78.8151 90.9284 77.3151 92.2216 75.687 92.2994C75.0377 92.3305 73.0328 91.8557 71.6443 91.9221C68.8875 92.054 70.3249 94.2678 69.2424 96.9626C68.7865 98.1057 65.2934 102.938 60.811 106.136C60.1238 106.629 58.2266 107.571 58.3064 109.239C58.4927 113.135 68.6992 117.422 76.9498 117.027C85.6299 116.612 88.7002 111.94 89.709 111.892C90.3383 111.862 90.7894 112.711 90.8353 113.67C90.927 115.588 89.7575 116.044 89.0217 116.57C72.0497 128.655 56.2912 114.411 56.1913 114.416C54.9228 114.477 51.93 121.187 44.7082 121.533C37.4865 121.878 33.6357 115.675 33.5579 114.047C33.4924 112.679 34.8249 111.443 35.654 111.404C37.6217 111.31 37.7245 115.97 43.3274 117.154C49.426 118.444 53.9271 111.661 53.8196 109.414C53.7556 108.075 51.7663 107.51 50.5404 106.577C49.8544 106.049 49.9594 105.734 48.4899 104.523C45.2906 101.893 41.6752 99.9831 41.4641 95.5681C41.4426 95.1187 41.2527 94.9175 40.7633 94.9409C40.6634 94.9457 32.5814 95.9329 30.0834 96.6631C27.7233 97.3466 25.2788 98.5648 25.4799 102.77C25.6633 106.606 31.8192 143.003 78.0514 142.153C95.5159 141.829 108.525 140.035 109.913 139.969C111.572 139.889 111.971 143.424 109.081 144.333C108.746 144.44 92.7741 146.044 84.7333 146.429C49.8832 148.096 42.0955 135.353 39.7282 135.467L36.539 133.467ZM51.0119 98.0148C51.0044 98.4857 50.3103 100.511 50.2585 100.474C49.1191 99.6771 47.9497 98.6718 48.2727 98.5162C48.8591 98.2179 51.009 97.9549 51.0119 98.0148Z" fill="black"/>
<path d="M110.558 25.5471C110.659 25.5623 97.0449 5.08931 117.625 12.7649C140.519 21.3009 147.757 27.1618 152.144 31.387C152.239 31.4826 170.893 8.72543 184.364 27.6735C189.279 34.5866 183.901 39.5692 180.9 45.8898C180.608 46.4944 180.586 47.6969 179.105 47.9179C178.389 48.0222 178.317 48.1858 177.614 48.7701C174.196 51.6266 166.925 55.3282 165.422 52.1564C164.263 49.699 167.808 49.3091 168.343 49.1835C169.492 48.9183 176.827 47.8066 181.402 38.187C184.877 30.8627 177.292 24.8882 170.853 24.4353C164.414 23.9824 158.322 29.0993 153.611 35.8921C151.279 39.2573 150.048 37.8045 149.869 37.1923C147.415 28.8 133.108 24.3785 123.311 19.6611C113.76 15.0521 110.644 15.4114 110.544 15.4162C110.303 15.4177 110.018 15.7217 110.383 16.4451C112.03 19.6901 113.67 21.9543 115.118 24.8184C117.838 30.1846 111.013 31.0817 107.168 29.1932C107.065 29.1381 90.4661 22.8539 83.6412 21.6586C82.8535 21.5161 80.5765 21.2145 77.9593 23.0116C74.6445 25.2925 79.5668 28.7814 81.0893 30.6808C85.6054 36.3515 81.0531 37.0398 79.8425 36.8474C73.6897 35.8903 68.6077 32.6193 65.3974 36.6673C63.4335 39.144 61.7906 37.03 62.4095 35.1083C62.506 34.8233 65.5721 28.1793 73.8114 31.109C74.0764 31.2064 74.584 31.3524 74.8817 31.0878C75.3235 30.6963 75.0042 30.3011 74.8743 30.097C73.8133 28.4258 71.2686 24.2026 74.9618 20.8323C84.8625 11.819 99.5712 23.79 110.578 25.5462L110.558 25.5471Z" fill="black"/>
<path d="M175.196 91.3643C175.92 97.2865 169.31 103.74 166.572 108.446C161.464 117.19 159.661 119.048 158.047 118.585C157.336 118.378 157.017 116.512 157.456 115.66C157.512 115.557 164.617 104.835 166.588 102.088C169.704 97.7439 172.748 93.764 170.726 89.3756C168.704 84.9872 167.147 79.8557 164.06 75.5983C162.709 73.7307 164.093 71.8825 165.733 71.6439C168.159 71.2976 174.661 86.8847 175.206 91.3638L175.196 91.3643Z" fill="black"/>
<path d="M97.4397 60.0237C97.6454 65.5802 90.3327 65.6997 89.467 60.7854C89.6521 59.0046 92.0355 56.0874 93.9901 56.7648C95.1813 57.5988 97.3894 58.3442 97.4397 60.0237Z" fill="#D1D1D3"/>
<path d="M40.2602 63.0885C40.4051 57.5352 47.4728 57.7378 45.9938 63.6552C45.1201 66.32 40.2214 66.4642 40.2602 63.0885Z" fill="#D1D1D3"/>
<path d="M42.5114 71.665C47.7434 71.415 48.9352 80.9643 43.5823 81.2404C37.2605 81.5628 36.816 73.1931 42.5114 71.665Z" fill="black"/>
<path d="M88.1633 76.6452C88.1811 75.5531 87.8327 74.3384 90.2672 72.7002C92.5077 71.1915 93.3469 71.3618 95.1452 72.9577C96.2428 73.9264 98.2722 76.1718 96.1524 79.1564C93.2451 83.26 88.1222 80.3915 88.1633 76.6452Z" fill="black"/>
</g>
<defs>
<filter id="filter0_d_1043_11422" x="-1" y="-0.547852" width="393.51" height="308" filterUnits="userSpaceOnUse" color-interpolation-filters="sRGB">
<feFlood flood-opacity="0" result="BackgroundImageFix"/>
<feColorMatrix in="SourceAlpha" type="matrix" values="0 0 0 0 0 0 0 0 0 0 0 0 0 0 0 0 0 0 127 0" result="hardAlpha"/>
<feOffset dy="2"/>
<feGaussianBlur stdDeviation="2"/>
<feComposite in2="hardAlpha" operator="out"/>
<feColorMatrix type="matrix" values="0 0 0 0 0 0 0 0 0 0 0 0 0 0 0 0 0 0 0.05 0"/>
<feBlend mode="normal" in2="BackgroundImageFix" result="effect1_dropShadow_1043_11422"/>
<feBlend mode="normal" in="SourceGraphic" in2="effect1_dropShadow_1043_11422" result="shape"/>
</filter>
</defs>
</svg>
